<svg width="148" height="148" viewBox="0 0 148 148" fill="none" xmlns="http://www.w3.org/2000/svg">
<g id="Group 1000001125">
<g id="woman memoji">
<circle id="Ellipse 926" cx="73.9162" cy="73.9163" r="64.5" transform="rotate(-9.12872 73.9162 73.9163)" fill="#FFDDC5"/>
</g>
<g id="Group">
<g id="Group_2">
<path id="Vector" d="M99.7656 54.5006C101.228 52.5805 101.461 49.6732 100.33 47.4465C99.1991 45.2198 96.7743 43.8168 94.4565 44.0423C95.446 41.9197 95.1605 39.1658 93.758 37.2694C92.3555 35.3731 89.91 34.4364 87.7461 34.9739C85.0118 32.1699 81.2821 30.512 77.5435 30.4388C75.5481 30.4001 72.9352 32.0686 73.9501 33.937C71.7426 33.1271 69.4303 32.3058 67.1446 32.6575C64.8588 33.0093 62.6356 34.9283 62.6604 37.4162C59.6893 37.423 56.6562 37.4343 53.8733 38.4848C51.0905 39.5353 48.563 41.83 47.9454 44.9319C43.5034 45.0655 39.159 46.8063 35.7701 49.808C34.6165 50.8258 33.5376 52.0543 33.1356 53.612C32.7326 55.1641 33.2031 57.0932 34.5344 57.8924C30.793 58.8485 27.7534 62.2731 27.0414 66.3335C26.3238 70.3949 27.9678 74.8809 31.0961 77.4032C28.8663 80.7122 29.0032 85.6624 31.4052 88.9496C33.8072 92.2368 38.2787 93.5731 41.8277 92.0712C42.8371 96.3468 47.3522 99.3449 51.3134 98.3699C51.9453 98.2149 52.5747 97.9746 53.2189 98.069C54.0281 98.1936 54.6903 98.8167 55.3537 99.3424C58.1963 101.586 62.0287 102.267 65.32 101.11C68.6122 99.9588 71.2713 97.0024 72.2295 93.4331" fill="#2B222B"/>
</g>
<g id="Group_3">
<path id="Vector_2" d="M84.2089 98.8653C90.9691 105.588 101.062 108.163 109.727 105.371C110.525 105.115 111.35 104.78 111.845 104.07C112.34 103.354 112.303 102.154 111.572 101.703C113.685 102.882 116.551 102.024 117.727 99.8535C118.903 97.6832 118.212 94.5443 116.238 93.1017C119.43 91.967 121.897 88.8534 122.433 85.2848C122.968 81.7162 121.559 77.8262 118.891 75.5314C118.186 74.9267 117.392 74.4053 116.899 73.5945C116.251 72.5347 116.254 71.1966 115.996 69.9701C115.315 66.7552 112.499 64.1531 109.447 63.9102C111.4 61.767 110.378 57.7677 108.003 56.0708C105.627 54.374 102.507 54.5194 99.8268 55.3931C99.8268 55.3931 91.8473 58.5984 91.0027 58.1882C90.1581 57.7779 75.6404 78.773 75.6404 78.773L74.1619 88.549" fill="#2B222B"/>
</g>
<g id="Group_4">
<path id="Vector_3" d="M90.3061 92.5468C90.1075 88.5098 92.8261 84.4519 91.4409 80.638C90.4735 77.9787 88.5847 75.8706 88.642 72.8719C88.6953 69.9539 93.1484 65.3889 90.94 62.8644C90.9113 62.8291 90.9123 62.8004 90.8893 62.7641C87.7296 64.6194 85.3616 66.5965 81.5013 64.5599C78.7234 63.0947 76.8827 61.0701 73.5805 62.1257C71.7012 62.7252 70.0917 63.9949 68.2372 64.6418C64.7121 65.8711 62.0455 64.0734 59.1136 62.2962C58.7261 62.9312 58.3646 63.5849 58.0771 64.2722C58.0771 64.2722 55.5123 70.4196 53.4781 76.1771C50.2617 85.2891 47.0763 95.6707 51.0681 104.613C55.2443 113.982 66.3021 118.086 75.714 116.366C80.5921 115.475 85.3244 113.242 88.7526 109.468C89.8761 108.232 90.8247 106.871 91.6502 105.421C92.2279 101.274 90.5119 96.6969 90.3061 92.5468Z" fill="#865941"/>
</g>
<path id="Vector_4" d="M83.2149 84.8652C83.507 82.4531 82.8138 80.3851 81.6665 80.2462C80.5192 80.1072 79.3523 81.95 79.0602 84.362C78.7681 86.7741 79.4613 88.8421 80.6086 88.9811C81.7559 89.12 82.9227 87.2773 83.2149 84.8652Z" fill="white"/>
<path id="Vector_5" d="M63.4707 81.3137C63.7629 78.9016 63.0697 76.8336 61.9224 76.6947C60.7751 76.5557 59.6082 78.3984 59.3161 80.8105C59.0239 83.2226 59.7172 85.2906 60.8645 85.4296C62.0117 85.5685 63.1786 83.7258 63.4707 81.3137Z" fill="white"/>
<path id="Vector_6" d="M63.3496 81.3364C63.6418 78.9243 62.9486 76.8563 61.8013 76.7174C60.654 76.5784 59.4871 78.4212 59.195 80.8332C58.9028 83.2453 59.5961 85.3133 60.7434 85.4523C61.8907 85.5912 63.0575 83.7485 63.3496 81.3364Z" fill="white"/>
<g id="Group_5">
<path id="Vector_7" d="M69.8429 81.9928C69.5192 84.4121 69.1955 86.8315 68.8709 89.2452C68.8018 89.7652 69.3836 89.9671 69.6849 89.6434C69.777 89.5425 69.6357 89.6914 69.7482 89.5758C69.8867 89.4445 70.0197 89.3141 70.1647 89.1875C70.5634 88.8306 70.9779 88.4998 71.4145 88.1996C72.3091 87.59 73.625 86.8657 74.7057 87.4259C76.2863 88.2471 76.0644 90.4154 75.1431 91.6295C74.4572 92.5364 72.9192 92.4284 71.9281 92.3793C70.9369 92.3303 69.9395 92.208 68.9627 92.0023C68.377 91.881 68.2455 92.8571 68.8312 92.9783C69.8432 93.1897 70.8758 93.3177 71.9004 93.3612C73.2077 93.4213 74.9239 93.4659 75.8312 92.3055C77.0278 90.7834 77.2168 88.449 75.7213 86.9965C74.5597 85.8723 72.9462 86.211 71.7074 86.8828C70.6989 87.4253 69.7631 88.1673 68.9587 89.0136C69.2319 89.146 69.5051 89.2785 69.7727 89.4118C70.0964 86.9925 70.4201 84.5731 70.7447 82.1594C70.8363 81.5328 69.9234 81.368 69.8429 81.9928Z" fill="#221F1F"/>
</g>
<path id="Vector_8" d="M79.4038 100.275C78.5548 104.615 73.5288 107.045 68.1774 105.71C62.826 104.375 59.1692 99.7792 60.0183 95.439" fill="white"/>
<g id="Group_6">
<path id="Vector_9" d="M57.7733 77.2994L55.2997 75.1099L55.9111 74.3067L57.6354 75.8303C58.49 74.9415 60.9395 73.0082 64.7854 74.8871L64.3981 75.8365C60.291 73.8289 58.168 76.7432 58.0796 76.8663L57.7733 77.2994Z" fill="#221F1F"/>
</g>
<g id="Group_7">
<path id="Vector_10" d="M85.6863 82.3226L85.5152 81.802C85.4628 81.6563 84.2056 78.1357 79.7673 78.6059L79.6477 77.5623C83.7994 77.122 85.6309 79.8226 86.213 80.9675L88.2516 80.1189L88.6235 81.0982L85.6863 82.3226Z" fill="#221F1F"/>
</g>
</g>
</g>
</svg>
