<svg width="139" height="139" viewBox="0 0 139 139" fill="none" xmlns="http://www.w3.org/2000/svg">
<g id="Group 1000001124">
<g id="pops memoji">
<circle id="Ellipse 441" cx="69.3944" cy="69.3935" r="58.7805" transform="rotate(11.5926 69.3944 69.3935)" fill="#AAE2D3"/>
</g>
<g id="Group 45">
<path id="Vector" d="M53.1148 63.9804C53.1148 63.9804 46.9683 58.0141 44.5339 56.6822C41.5625 55.059 33.6254 52.9905 32.0252 61.8256C30.4583 70.4803 37.1285 74.0421 40.7219 74.0821C43.6912 74.1117 52.1043 70.3699 52.1043 70.3699" fill="#A97052"/>
<path id="Vector_2" d="M87.8903 70.0392C87.8903 70.0392 95.5404 66.5165 98.2608 66.0964C101.571 65.5817 109.718 66.3618 108.498 75.2644C107.301 83.9861 99.8971 85.0565 96.4875 83.8549C93.6726 82.8638 86.875 76.4285 86.875 76.4285" fill="#A97052"/>
<path id="Vector_3" d="M99.3862 64.9973C98.0287 72.2265 94.4215 87.2227 87.9877 95.3223C81.9412 102.927 73.6955 106.076 63.9591 104.523C54.2226 102.97 47.6619 98.1245 43.9389 86.1047C40.219 74.0682 44.1181 54.774 44.1181 54.774C44.1181 54.774 48.9706 28.9318 76.2885 34.0614C105.085 39.4515 99.3862 64.9973 99.3862 64.9973Z" fill="#A97052"/>
<path id="Vector_4" d="M55.4695 39.8077C50.7077 39.0349 44.8148 37.7279 43.5403 42.0242C40.885 47.5246 41.7828 53.8259 42.2812 56.6431L45.6887 60.254L47.1025 52.7204C51.0541 41.857 55.4695 39.8077 55.4695 39.8077Z" fill="#989495"/>
<path id="Vector_5" d="M94.5121 46.6313C99.2297 47.6385 104.4 47.3738 104.855 51.1731C105.447 56.1123 102.181 64.6596 100.695 67.1041L96.2094 69.2329L97.6248 61.6996C97.8834 50.1428 94.5121 46.6313 94.5121 46.6313Z" fill="#989495"/>
<path id="Vector_6" d="M60.7582 64.3422C60.8306 61.8146 59.9147 59.7376 58.7125 59.7031C57.5102 59.6687 56.4769 61.6899 56.4045 64.2175C56.3321 66.7451 57.2481 68.8221 58.4503 68.8565C59.6526 68.891 60.6858 66.8698 60.7582 64.3422Z" fill="white"/>
<path id="Vector_7" d="M87.265 68.614C87.8638 66.1572 87.4019 63.9348 86.2334 63.65C85.0649 63.3652 83.6322 65.1259 83.0334 67.5826C82.4346 70.0394 82.8965 72.2619 84.0651 72.5467C85.2336 72.8315 86.6663 71.0708 87.265 68.614Z" fill="white"/>
<g id="Group">
<path id="Vector_8" d="M69.5772 66.2999C69.14 69.0528 68.7027 71.8057 68.2654 74.5587C68.1729 75.1543 68.8261 75.3775 69.1782 75.0108C69.2869 74.8979 69.1216 75.0621 69.2556 74.9358C69.4152 74.7861 69.5749 74.6363 69.7343 74.4915C70.1965 74.0859 70.6773 73.7008 71.1806 73.361C72.2125 72.663 73.7231 71.8307 74.9321 72.4642C76.7024 73.3903 76.387 75.8589 75.3071 77.2481C74.5 78.2815 72.7646 78.1637 71.6406 78.1145C70.5216 78.0657 69.3921 77.9278 68.2916 77.6978C67.6341 77.5629 67.4579 78.6709 68.1154 78.8058C69.2549 79.0426 70.4237 79.1823 71.5871 79.2284C73.0695 79.2898 75.0101 79.334 76.0772 78.0081C77.4739 76.2702 77.759 73.6133 76.1067 71.9698C74.8252 70.6983 72.9818 71.0868 71.5577 71.8593C70.3965 72.4823 69.3182 73.3256 68.3812 74.2986C68.6838 74.4509 68.9914 74.5985 69.294 74.7507C69.7312 71.9978 70.1685 69.2449 70.6057 66.492C70.7241 65.7697 69.6951 65.5875 69.5772 66.2999Z" fill="#221F1F"/>
</g>
<g id="Group_2">
<path id="Vector_9" d="M37.2036 62.5917C37.5674 63.824 38.7386 64.6278 39.7439 65.2024C40.3903 65.5679 41.0685 65.8858 41.7654 66.121C42.0315 66.2125 42.3297 66.1481 42.4624 65.8446C42.5784 65.5797 42.4732 65.2107 42.2129 65.0998C40.7086 64.4717 38.8431 64.1951 37.2901 64.7845C36.6338 65.0333 36.052 65.4725 35.611 66.0514C35.1806 66.616 35.9822 67.3332 36.4127 66.7686C37.2263 65.7011 38.5392 65.5036 39.7089 65.6237C40.2276 65.6782 40.739 65.7814 41.2383 65.9333C41.2869 65.9455 41.3353 65.9626 41.3839 65.9747C41.4178 65.9862 41.5776 66.0382 41.4082 65.9808C41.476 66.0038 41.5437 66.0267 41.6066 66.0494C41.6645 66.0718 41.7227 66.0894 41.7755 66.1165C41.9247 65.7745 42.0688 65.4371 42.218 65.0951C41.5793 64.8775 40.9536 64.5917 40.3593 64.268C39.8608 63.9981 39.4265 63.7215 38.9972 63.3418C38.615 63.0038 38.3266 62.6604 38.1869 62.1913C37.9792 61.4977 37.0007 61.9032 37.2036 62.5917Z" fill="#221F1F"/>
</g>
<g id="Group_3">
<path id="Vector_10" d="M102.675 73.1562C102.395 73.551 102.02 73.7739 101.553 73.9679C101.032 74.1789 100.534 74.2927 99.9795 74.3792C99.3156 74.4801 98.6339 74.5407 97.9659 74.5234C98.0022 74.894 98.0333 75.2693 98.0696 75.6399C98.1287 75.6378 98.1878 75.6357 98.2516 75.6388C98.3206 75.6372 98.3893 75.6405 98.4629 75.6441C98.286 75.6405 98.453 75.6436 98.4874 75.6452C98.5365 75.6476 98.5855 75.65 98.6346 75.6523C99.1543 75.6871 99.672 75.7612 100.177 75.8888C101.315 76.1746 102.499 76.8168 102.938 78.1019C103.166 78.7818 104.145 78.3813 103.917 77.7014C103.145 75.4314 100.734 74.6368 98.6832 74.5382C98.4477 74.5269 98.2072 74.5153 97.9705 74.5285C97.6897 74.5396 97.4776 74.8589 97.5032 75.1454C97.5313 75.4812 97.7894 75.6363 98.0743 75.645C98.8061 75.6655 99.5471 75.5978 100.271 75.4752C101.397 75.2834 102.752 74.9256 103.481 73.8835C103.878 73.2927 103.081 72.5708 102.675 73.1562Z" fill="#221F1F"/>
</g>
<path id="Vector_11" d="M64.3062 57.625L64.695 55.5543L57.8232 54.3834C56.9494 54.2326 56.063 54.3714 55.305 54.7866L50.7399 57.2213L56.1634 56.3609L64.3062 57.625Z" fill="#1A1A1A"/>
<path id="Vector_12" d="M66.5152 83.5947L66.904 81.524L60.0322 80.3531C59.1584 80.2023 58.272 80.3411 57.514 80.7563L52.9489 83.1911L58.3724 82.3306L66.5152 83.5947Z" fill="#1A1A1A"/>
<path id="Vector_13" d="M70.3095 84.5765L70.5217 82.4803L77.4444 83.299C78.3251 83.4013 79.1362 83.785 79.746 84.3974L83.437 88.023L78.4776 85.665L70.3095 84.5765Z" fill="#1A1A1A"/>
<path id="Vector_14" d="M82.1932 60.5415L82.4707 58.4529L89.3645 59.4873C90.2416 59.617 91.0403 60.0258 91.6307 60.6569L95.2067 64.3959L90.3234 61.8843L82.1932 60.5415Z" fill="#1A1A1A"/>
<path id="Vector_15" d="M63.0898 96.2344C63.0898 96.2344 66.6763 98.2916 71.4829 96.9978" stroke="#221F1F" stroke-miterlimit="10" stroke-linecap="round" stroke-linejoin="round"/>
<path id="Vector_16" d="M57.9258 85.3792L79.29 87.3225C79.29 87.3225 75.0899 93.862 67.2275 92.7479C59.365 91.6338 57.9258 85.3792 57.9258 85.3792Z" fill="white"/>
<path id="Line 3" d="M68.9316 49.1965L81.2917 50.3091" stroke="#221F1F" stroke-linecap="round"/>
<path id="Line 4" d="M71.2461 47.9395L78.5167 48.5939" stroke="#221F1F" stroke-linecap="round"/>
</g>
</g>
</svg>
