<svg width="95" height="95" viewBox="0 0 95 95" fill="none" xmlns="http://www.w3.org/2000/svg">
<g id="Group 1000001126">
<g id="Group 1000001082">
<circle id="Ellipse 440" cx="47.3986" cy="47.3989" r="41.4681" transform="rotate(8.92409 47.3986 47.3989)" fill="#F79E1A"/>
</g>
<g id="Group 50">
<g id="Group">
<path id="Vector" d="M70.1276 43.6803C70.5316 39.9681 70.2395 34.3767 63.9064 27.8004C53.4533 16.9415 39.8857 25.0723 39.8857 25.0723C36.5963 23.3468 34.2899 24.8116 32.3127 27.6341C30.6312 30.0463 29.4324 35.5891 29.1103 37.7654L28.7772 48.2124L33.5038 41.2615C39.0355 34.3027 43.9738 32.525 43.9738 32.525L55.9977 36.1867L59.4912 60.7019L67.0718 51.3701C68.0546 49.7728 68.875 48.0625 69.4698 46.2755C69.8037 45.2433 70.0558 44.3258 70.1276 43.6803Z" fill="#1A1A1A"/>
<path id="Vector_2" d="M34.6022 46.3222C34.6022 46.3222 31.567 41.983 30.2445 40.8904C28.63 39.5583 24.0529 37.3764 22.0506 42.5533C20.0895 47.6246 23.7233 50.5652 25.9001 51.0087C27.6992 51.3732 33.2433 50.0833 33.2433 50.0833" fill="#865941"/>
<path id="Vector_3" d="M57.5102 55.0778C57.5102 55.0778 62.5654 53.8318 64.2659 53.8942C66.3355 53.968 71.1902 55.3921 69.4109 60.6544C67.667 65.8096 63.047 65.5955 61.1173 64.4681C59.5241 63.538 56.1483 58.8381 56.1483 58.8381" fill="#865941"/>
<path id="Vector_4" d="M64.159 50.7944C62.3909 55.2795 58.2492 64.4994 53.3251 69.0032C48.6984 73.2311 43.3428 74.3721 37.715 72.3442C32.0873 70.3163 28.7968 66.5175 28.1541 58.4254C27.5153 50.3231 32.3995 38.3819 32.3995 38.3819C32.3995 38.3819 38.7198 22.3488 54.4077 28.5331C70.9469 35.041 64.159 50.7944 64.159 50.7944Z" fill="#865941"/>
<path id="Vector_5" d="M41.0702 45.5332C41.4091 44.0072 41.0954 42.6394 40.3696 42.4782C39.6437 42.317 38.7806 43.4235 38.4417 44.9495C38.1028 46.4756 38.4165 47.8433 39.1424 48.0045C39.8682 48.1657 40.7314 47.0592 41.0702 45.5332Z" fill="white"/>
<path id="Vector_6" d="M56.661 51.2197C57.3111 49.7981 57.2901 48.395 56.6139 48.0857C55.9378 47.7765 54.8625 48.6782 54.2124 50.0998C53.5622 51.5214 53.5833 52.9245 54.2595 53.2338C54.9356 53.543 56.0108 52.6413 56.661 51.2197Z" fill="white"/>
<g id="Group_2">
<path id="Vector_7" d="M45.3659 49.8508C44.7792 51.471 44.1926 53.0913 43.6059 54.7115C43.4802 55.0623 43.8508 55.274 44.1073 55.0924C44.1864 55.0366 44.0669 55.117 44.163 55.056C44.2774 54.9837 44.3918 54.9114 44.5055 54.8421C44.8334 54.6498 45.1702 54.4721 45.5154 54.3246C46.2233 54.0212 47.2375 53.6922 47.8975 54.2179C48.8642 54.9867 48.3847 56.4485 47.567 57.1658C46.9564 57.699 45.9166 57.425 45.24 57.264C44.5664 57.1038 43.8968 56.8883 43.2555 56.6203C42.8721 56.4617 42.6358 57.1137 43.0193 57.2723C43.6834 57.549 44.3766 57.7703 45.0776 57.934C45.9703 58.1442 47.1433 58.3974 47.9458 57.7171C48.9965 56.825 49.4796 55.2453 48.6683 54.0548C48.0386 53.1333 46.8742 53.1541 45.9195 53.4569C45.1419 53.6996 44.3889 54.0857 43.7065 54.5671C43.8724 54.6949 44.042 54.8204 44.2079 54.9481C44.7946 53.3279 45.3812 51.7076 45.9679 50.0874C46.124 49.6628 45.5206 49.4321 45.3659 49.8508Z" fill="#221F1F"/>
</g>
<g id="Group_3">
<path id="Vector_8" d="M26.1461 43.822C26.2232 44.6125 26.8404 45.2372 27.3836 45.7033C27.7334 46.0006 28.1081 46.2727 28.5037 46.4968C28.6546 46.5834 28.8431 46.5791 28.9591 46.4104C29.0604 46.2631 29.0396 46.0268 28.8945 45.9291C28.0546 45.3723 26.9543 44.9867 25.9428 45.1633C25.5153 45.2377 25.1108 45.4365 24.7756 45.7365C24.4484 46.029 24.8514 46.558 25.1786 46.2654C25.7971 45.7123 26.6172 45.7456 27.3132 45.955C27.6218 46.0486 27.9202 46.1709 28.2056 46.3214C28.2337 46.3345 28.2611 46.3505 28.2892 46.3635C28.3084 46.3744 28.3994 46.4246 28.3032 46.3701C28.3417 46.3919 28.3801 46.4137 28.4156 46.4348C28.4482 46.4552 28.4815 46.4727 28.5103 46.4953C28.6409 46.3051 28.7677 46.1171 28.8982 45.9268C28.5358 45.7202 28.1893 45.4737 27.8663 45.2079C27.5951 44.9859 27.3638 44.7672 27.1474 44.4867C26.9549 44.2368 26.8199 43.9947 26.7898 43.6937C26.7446 43.2483 26.1033 43.3803 26.1461 43.822Z" fill="#221F1F"/>
</g>
<g id="Group_4">
<path id="Vector_9" d="M64.6615 57.8739C64.4457 58.0809 64.1922 58.1725 63.8863 58.2358C63.545 58.3031 63.2298 58.3141 62.8827 58.3019C62.4679 58.2856 62.047 58.2429 61.6435 58.1545C61.6223 58.3837 61.5974 58.6152 61.5762 58.8444C61.6123 58.85 61.6485 58.8557 61.6868 58.865C61.7289 58.872 61.7702 58.8821 61.8145 58.8928C61.7075 58.87 61.8085 58.8914 61.8292 58.8964C61.8587 58.9035 61.8882 58.9107 61.9177 58.9178C62.2292 58.9996 62.5348 59.105 62.8268 59.2414C63.4838 59.5476 64.1276 60.0756 64.2447 60.9071C64.3038 61.3465 64.9444 61.2175 64.8854 60.7781C64.682 59.3101 63.311 58.5463 62.0773 58.2471C61.9356 58.2128 61.791 58.1777 61.6457 58.1581C61.4739 58.1321 61.3079 58.3012 61.29 58.4781C61.2679 58.6852 61.4065 58.8095 61.5784 58.848C62.0203 58.9458 62.4781 58.9912 62.9319 59.0013C63.6376 59.0162 64.502 58.957 65.066 58.4094C65.3761 58.0971 64.9768 57.5659 64.6615 57.8739Z" fill="#221F1F"/>
</g>
<path id="Vector_10" d="M68.8436 35.6912C68.3771 35.6621 56.4688 26.7061 56.4688 26.7061L43.3394 25.6373C43.3394 25.6373 43.3353 25.6476 43.3416 25.662C31.9337 24.3791 32.6399 35.895 32.6399 35.895C37.7373 35.3926 38.6479 32.7564 40.7136 29.8804C41.619 33.0705 47.5738 38.4488 56.4855 41.7595C65.6041 45.1517 68.013 42.042 68.013 42.042C68.013 42.042 69.3245 35.7141 68.8436 35.6912Z" fill="#1A1A1A"/>
</g>
<path id="Vector_11" d="M44.0049 41.8692L44.4826 40.6574L40.4474 39.1448C39.9346 38.9513 39.3802 38.9321 38.8716 39.0957L35.8161 40.0412L39.2091 40.1516L44.0049 41.8692Z" fill="#1A1A1A"/>
<path id="Vector_12" d="M54.524 45.7265L54.9362 44.491L59.0005 45.9233C59.5179 46.1043 59.9551 46.4457 60.2398 46.8978L61.9745 49.5849L59.303 47.4903L54.524 45.7265Z" fill="#1A1A1A"/>
<path id="Vector_13" d="M37.9355 67.2656C37.9355 67.2656 39.8728 68.933 42.9418 68.7084" stroke="#221F1F" stroke-miterlimit="10" stroke-linecap="round" stroke-linejoin="round"/>
<path id="Vector_14" d="M36.0664 60.0725L48.8095 63.7451C48.8095 63.7451 45.4966 67.225 40.8535 65.6313C36.2103 64.0375 36.0664 60.0725 36.0664 60.0725Z" fill="white"/>
</g>
</g>
</svg>
