<svg width="161" height="161" viewBox="0 0 161 161" fill="none" xmlns="http://www.w3.org/2000/svg">
<circle cx="80.1764" cy="80.2815" r="67.9144" transform="rotate(11.5926 80.1764 80.2815)" fill="#AAE2D3"/>
<path d="M41.6703 105.839C43.1945 105.204 50.7197 88.9644 54.2918 80.924L103.563 74.0662C103.563 74.0662 113.129 91.9262 108.082 110.002C103.034 128.077 40.1461 106.473 41.6703 105.839Z" fill="#2B222B"/>
<path d="M55.4276 85.7269C55.4276 85.7269 51.8044 81.4232 50.3014 80.3925C48.4667 79.136 43.4165 77.2613 41.7887 82.9291C40.1945 88.4812 44.3184 91.2482 46.6638 91.5111C48.6021 91.7262 54.3463 89.8355 54.3463 89.8355" fill="#B26D48"/>
<path d="M103.405 84.929C103.405 84.929 107.815 81.4354 109.493 80.7256C111.542 79.8607 116.865 79.0321 117.328 84.9108C117.782 90.6694 113.188 92.5573 110.838 92.3466C108.896 92.1703 103.645 89.1708 103.645 89.1708" fill="#B26D48"/>
<path d="M45.1246 83.7717C45.2811 84.6009 45.9935 85.2034 46.6125 85.6451C47.0108 85.9266 47.433 86.179 47.8729 86.3786C48.0408 86.4559 48.2399 86.4335 48.3466 86.2439C48.4398 86.0784 48.3954 85.8304 48.2326 85.7408C47.291 85.2312 46.0902 84.9276 45.0366 85.2103C44.5914 85.3296 44.1822 85.5783 43.8559 85.9275C43.5375 86.2681 44.014 86.7896 44.3325 86.449C44.9345 85.8051 45.8054 85.7625 46.5619 85.9181C46.8972 85.9879 47.2246 86.0891 47.5409 86.2212C47.5718 86.2324 47.6023 86.2467 47.6333 86.2579C47.6547 86.2676 47.7557 86.3121 47.6487 86.2634C47.6915 86.2829 47.7343 86.3023 47.7738 86.3213C47.8102 86.3398 47.8471 86.3551 47.8798 86.3763C47.9999 86.1627 48.1162 85.9517 48.2363 85.738C47.8332 85.5538 47.4433 85.3258 47.0762 85.0751C46.7683 84.8659 46.5027 84.6565 46.2472 84.3801C46.0197 84.134 45.8539 83.8906 45.7935 83.5749C45.7035 83.108 45.0374 83.3085 45.1246 83.7717Z" fill="#221F1F"/>
<path d="M113.892 85.0674C113.573 85.8487 112.755 86.2968 112.06 86.606C111.614 86.8023 111.149 86.9653 110.679 87.073C110.499 87.1153 110.308 87.0536 110.241 86.8465C110.183 86.6658 110.276 86.4316 110.453 86.3763C111.478 86.065 112.715 86.0072 113.691 86.4946C114.103 86.7005 114.455 87.0258 114.705 87.4331C114.949 87.8304 114.378 88.2463 114.134 87.849C113.672 87.0978 112.827 86.8822 112.055 86.8836C111.713 86.885 111.372 86.9188 111.035 86.9852C111.003 86.9899 110.97 86.9979 110.937 87.0026C110.915 87.0079 110.807 87.0313 110.921 87.005C110.875 87.0155 110.83 87.026 110.787 87.0367C110.748 87.0476 110.709 87.0552 110.672 87.0695C110.597 86.8361 110.525 86.6062 110.45 86.3729C110.882 86.2728 111.31 86.1272 111.719 85.9549C112.063 85.8114 112.365 85.6593 112.671 85.4395C112.943 85.2437 113.154 85.0383 113.276 84.7411C113.457 84.3015 114.07 84.6309 113.892 85.0674Z" fill="#221F1F"/>
<ellipse cx="77.8096" cy="80.6667" rx="29.0276" ry="33.1163" transform="rotate(-8.00094 77.8096 80.6667)" fill="#B26D48"/>
<path d="M91.4535 77.8413C91.1608 74.9231 89.7983 72.6703 88.4103 72.8095C87.0223 72.9487 86.1343 75.4273 86.427 78.3455C86.7197 81.2637 88.0823 83.5165 89.4703 83.3773C90.8583 83.2381 91.7462 80.7595 91.4535 77.8413Z" fill="white"/>
<path d="M67.2543 78.8716C66.9616 75.9534 65.5991 73.7005 64.2111 73.8397C62.8231 73.979 61.9351 76.4575 62.2278 79.3758C62.5205 82.294 63.883 84.5468 65.2711 84.4076C66.6591 84.2684 67.547 81.7898 67.2543 78.8716Z" fill="white"/>
<path d="M67.1156 78.9316C66.8229 76.0134 65.4604 73.7606 64.0724 73.8998C62.6844 74.039 61.7964 76.5176 62.0891 79.4358C62.3819 82.354 63.7444 84.6069 65.1324 84.4676C66.5204 84.3284 67.4083 81.8499 67.1156 78.9316Z" fill="white"/>
<path d="M74.9377 77.9913C75.1952 80.9263 75.4527 83.8615 75.7076 86.7902C75.7635 87.421 76.502 87.5051 76.7715 87.0443C76.8533 86.9012 76.7261 87.1139 76.8281 86.948C76.9566 86.7568 77.0788 86.5681 77.2162 86.3807C77.5916 85.8551 77.9925 85.356 78.4275 84.8871C79.3203 83.9329 80.6791 82.7324 82.0998 83.1069C84.1784 83.6569 84.4894 86.2694 83.7248 87.9427C83.1564 89.192 81.3162 89.4708 80.1359 89.6747C78.9555 89.8786 77.7484 89.9978 76.5435 90.0134C75.8217 90.0253 75.9244 91.2097 76.6463 91.1978C77.8941 91.1796 79.1442 91.0577 80.3625 90.8385C81.9182 90.5642 83.9515 90.1635 84.7137 88.5573C85.7213 86.4485 85.3276 83.649 83.1827 82.333C81.5176 81.3155 79.7066 82.1405 78.4248 83.2587C77.3802 84.164 76.4739 85.2851 75.7499 86.4943C76.1066 86.5781 76.4633 86.6619 76.8137 86.7483C76.5563 83.8132 76.2988 80.8781 76.0439 77.9494C75.9864 77.1871 74.8676 77.2341 74.9377 77.9913Z" fill="#221F1F"/>
<path d="M91.0316 96.9999C91.1773 102.336 85.8989 106.525 79.2433 106.365C72.5876 106.206 67.0669 101.758 66.9212 96.4214" fill="white"/>
<path d="M59.4842 75.6509L55.9926 73.725L56.5007 72.6175L58.9339 73.9568C59.7059 72.6843 62.0807 69.7605 67.1067 70.9582L66.901 72.1788C61.5335 70.8985 59.8023 74.8916 59.7306 75.0599L59.4842 75.6509Z" fill="#221F1F"/>
<path d="M93.6898 74.1954L93.3509 73.6273C93.2506 73.4696 90.8404 69.6547 85.7368 71.3802L85.3205 70.1827C90.0944 68.5679 92.9646 71.2653 93.9524 72.4602L96.1296 70.9225L96.8262 71.9778L93.6898 74.1954Z" fill="#221F1F"/>
<path d="M57.6893 57.556C56.3764 57.3113 58.9745 50.3388 60.4377 46.8832C60.4377 46.8832 69.6927 39.3912 81.279 40.5619C92.8652 41.7326 100.525 47.293 103.887 51.2649C107.248 55.2369 109.49 60.0473 110.857 66.4275C111.987 71.6965 110.696 80.4651 110.696 80.4651L105.864 82.7855C105.864 82.7855 107.483 79.1584 101.112 69.1101C94.7404 59.0618 59.0023 57.8007 57.6893 57.556Z" fill="#2B222B"/>
<path d="M46.4263 59.0774C48.521 55.0548 56.3628 49.6573 60.1451 50.0387L61.816 56.4042C61.816 56.4042 55.7339 62.8458 53.8145 66.442C50.397 72.8451 51.878 83.426 52.2129 85.5032C52.2832 85.6643 52.2959 85.7851 52.2739 85.8633C52.2739 85.8633 52.2507 85.7372 52.2129 85.5032C51.9886 84.9884 51.1773 84.061 49.0355 82.7868C46.2233 81.1137 44.3301 77.0343 44.1205 73.4622C43.7763 69.7957 44.1269 63.4932 46.4263 59.0774Z" fill="#2B222B"/>
</svg>
