<svg width="1440" height="864" viewBox="0 0 1440 864" fill="none" xmlns="http://www.w3.org/2000/svg">
<path d="M-451 -122.215C-107.978 16.1519 76.9233 198.641 183.562 347.93C272.456 472.393 270.879 523.307 365.272 616.165C570.113 817.666 962.508 956.621 1152.68 783.458C1246.37 698.157 1211.71 590.059 1256.52 385.422C1296.83 201.338 1401.06 -51.8439 1692.05 -327" stroke="#D5D5D5" stroke-opacity="0.25" stroke-width="3" stroke-miterlimit="10"/>
<path d="M-450.312 -77.572C-116.667 41.3434 66.3853 213.021 172.968 352.736C262.648 470.328 269.94 517.351 370.202 608.614C580.529 800.065 949.038 933.354 1139.48 771.782C1237.58 688.565 1215.26 582.316 1267.77 378.28C1313.99 198.648 1420.35 -50.2042 1706.32 -322.893" stroke="#D5D5D5" stroke-opacity="0.25" stroke-width="3" stroke-miterlimit="10"/>
<path d="M-449.629 -32.9371C-125.365 66.5332 55.9795 227.444 162.389 357.541C253.04 468.373 268.836 511.401 375.147 601.062C590.496 782.685 936.153 910.395 1126.3 760.11C1229.03 678.916 1218.67 574.677 1279.03 371.141C1330.98 196.006 1439.65 -48.5476 1720.63 -318.756" stroke="#D5D5D5" stroke-opacity="0.25" stroke-width="3" stroke-miterlimit="10"/>
<path d="M-448.941 11.7049C-134.06 91.7302 45.757 241.91 151.814 362.384C243.553 466.536 267.557 505.494 380.12 593.504C600.065 765.553 923.827 887.784 1113.14 748.434C1220.71 669.268 1221.92 567.126 1290.32 363.998C1347.76 193.402 1458.98 -46.89 1734.92 -314.637" stroke="#D5D5D5" stroke-opacity="0.25" stroke-width="3" stroke-miterlimit="10"/>
<path d="M-448.254 56.3411C-142.724 116.909 35.7447 256.376 141.239 367.159C234.228 464.798 266.172 499.644 385.032 585.953C609.188 748.675 911.947 865.543 1099.93 736.757C1212.55 659.601 1224.94 559.624 1301.55 356.855C1364.29 190.811 1478.26 -45.2383 1749.17 -310.486" stroke="#D5D5D5" stroke-opacity="0.25" stroke-width="3" stroke-miterlimit="10"/>
<path d="M-447.566 100.977C-151.444 142.099 25.9614 270.849 130.664 371.964C225.1 463.165 264.565 493.879 389.981 578.395C618.009 732.075 900.556 843.68 1086.74 725.086C1204.63 649.99 1227.76 552.159 1312.82 349.711C1380.65 188.213 1497.56 -43.581 1763.45 -306.398" stroke="#D5D5D5" stroke-opacity="0.25" stroke-width="3" stroke-miterlimit="10"/>
<path d="M-446.879 145.612C-160.139 167.259 16.4502 285.259 120.089 376.77C216.183 461.619 262.853 488.214 394.924 570.843C626.545 715.747 889.572 822.212 1073.56 713.409C1196.9 640.465 1230.44 544.693 1324.08 342.574C1396.81 185.591 1516.89 -41.9237 1777.74 -302.273" stroke="#D5D5D5" stroke-opacity="0.25" stroke-width="3" stroke-miterlimit="10"/>
<path d="M-446.172 190.254C-168.814 192.475 7.25526 299.602 109.534 381.575C207.532 460.122 261.061 482.672 399.886 563.291C634.847 699.697 878.98 801.134 1060.39 701.732C1189.38 631.058 1232.91 537.216 1335.36 335.43C1412.77 182.938 1536.17 -40.2476 1792.02 -298.154" stroke="#D5D5D5" stroke-opacity="0.25" stroke-width="3" stroke-miterlimit="10"/>
<path d="M-445.508 234.89C-177.532 217.665 -1.66092 313.808 98.9351 386.387C199.129 458.65 259.072 477.304 404.811 555.733C642.927 683.92 868.672 780.452 1047.18 690.061C1182.01 621.806 1235.12 529.677 1346.6 328.287C1428.56 180.229 1555.47 -38.6148 1806.34 -294.035" stroke="#D5D5D5" stroke-opacity="0.25" stroke-width="3" stroke-miterlimit="10"/>
<path d="M-444.824 279.508C-186.225 242.839 -10.2298 327.812 88.3561 391.175C190.981 457.13 257.028 471.998 409.75 548.164C650.821 668.384 858.619 760.13 1034 678.367C1174.79 612.727 1237.16 522.046 1357.86 321.126C1444.19 177.434 1574.78 -36.9748 1820.59 -289.934" stroke="#D5D5D5" stroke-opacity="0.25" stroke-width="3" stroke-miterlimit="10"/>
<path d="M-444.133 324.167C-194.885 268.046 -18.4569 341.615 77.7911 395.998C183.168 455.545 254.918 466.919 414.703 540.623C658.619 653.137 848.808 740.22 1020.81 666.713C1167.75 603.919 1239 514.344 1369.13 313.999C1459.67 174.6 1594.08 -35.3003 1834.88 -285.785" stroke="#D5D5D5" stroke-opacity="0.25" stroke-width="3" stroke-miterlimit="10"/>
<path d="M-443.449 368.803C-203.615 293.231 -26.3764 355.104 67.2122 400.804C175.644 453.758 252.757 461.996 419.641 533.072C666.316 638.115 839.17 720.645 1007.63 655.037C1160.83 595.372 1240.65 506.502 1380.39 306.863C1475.02 171.663 1613.38 -33.6485 1849.16 -281.672" stroke="#D5D5D5" stroke-opacity="0.25" stroke-width="3" stroke-miterlimit="10"/>
<path d="M-442.762 413.445C-212.309 318.422 -34.0198 368.247 56.6372 405.615C168.409 451.686 250.494 457.24 424.59 525.52C673.956 623.321 829.658 701.416 994.447 643.36C1154.01 587.14 1242.12 498.517 1391.65 299.719C1490.25 168.632 1632.69 -31.9909 1863.44 -277.553" stroke="#D5D5D5" stroke-opacity="0.25" stroke-width="3" stroke-miterlimit="10"/>
<path d="M-442.074 458.082C-220.998 343.614 -41.4345 381.007 46.0621 410.422C161.427 449.207 248.219 452.664 429.52 517.964C681.539 608.732 820.221 682.48 981.249 631.69C1147.33 579.274 1243.41 490.361 1402.9 292.577C1505.39 165.497 1651.99 -30.3509 1877.73 -273.414" stroke="#D5D5D5" stroke-opacity="0.25" stroke-width="3" stroke-miterlimit="10"/>
<path d="M-441.391 502.718C-229.697 368.798 -48.7045 393.352 35.4584 415.228C154.603 446.189 245.891 448.261 434.453 510.412C689.113 594.346 810.818 663.907 968.048 620.013C1140.7 571.815 1244.55 482.024 1414.15 285.415C1520.42 162.238 1671.27 -28.6996 1891.98 -269.332" stroke="#D5D5D5" stroke-opacity="0.25" stroke-width="3" stroke-miterlimit="10"/>
<path d="M-440.703 547.359C-238.361 393.988 -55.9088 405.275 24.9081 420.032C147.924 442.495 243.597 444.035 439.42 502.853C696.709 580.163 801.455 645.592 954.887 608.341C1134.15 564.806 1245.57 473.512 1425.44 278.295C1535.44 158.903 1690.6 -27.0247 1906.29 -265.189" stroke="#D5D5D5" stroke-opacity="0.25" stroke-width="3" stroke-miterlimit="10"/>
<path d="M-439.984 591.995C-247.055 419.179 -62.2779 439.156 14.3643 424.845C139.724 401.429 241.31 439.991 444.401 495.302C704.348 566.112 792.03 627.552 941.703 596.665C1127.61 558.319 1246.46 464.749 1436.7 271.152C1550.39 155.459 1709.91 -25.3665 1920.58 -261.045" stroke="#D5D5D5" stroke-opacity="0.25" stroke-width="3" stroke-miterlimit="10"/>
<path d="M-439.328 636.631C-255.775 444.37 -68.796 446.393 3.75803 429.65C130.924 400.309 238.96 436.113 449.312 487.75C712.012 552.258 782.494 609.777 928.517 584.988C1121.05 552.345 1247.24 455.8 1447.97 263.996C1565.31 151.884 1729.21 -23.7274 1934.86 -256.963" stroke="#D5D5D5" stroke-opacity="0.25" stroke-width="3" stroke-miterlimit="10"/>
<path d="M-438.641 681.273C-264.47 469.554 -76.1674 452.917 -6.81707 434.456C122.637 400 236.654 432.408 454.261 480.223C719.719 538.521 772.84 592.205 915.332 573.348C1114.44 546.994 1247.93 446.658 1459.23 256.896C1580.2 148.26 1748.52 -22.0393 1949.15 -252.801" stroke="#D5D5D5" stroke-opacity="0.25" stroke-width="3" stroke-miterlimit="10"/>
<path d="M-437.957 725.908C-273.169 494.745 -86.6288 449.447 -17.3898 439.261C118.991 419.241 234.382 428.858 459.206 472.659C727.503 524.902 763.016 574.813 902.15 561.658C1107.72 542.201 1248.55 437.22 1470.5 249.721C1595.1 144.456 1767.83 -20.4006 1963.43 -248.713" stroke="#D5D5D5" stroke-opacity="0.25" stroke-width="3" stroke-miterlimit="10"/>
<path d="M-437.27 770.545C-281.864 519.937 -95.2494 459.95 -27.971 444.074C110.352 411.436 232.125 425.47 464.142 465.102C735.34 511.408 752.973 557.614 888.958 549.982C1100.86 538.095 1249.12 427.647 1481.75 242.597C1609.99 140.591 1787.12 -18.7296 1977.71 -244.574" stroke="#D5D5D5" stroke-opacity="0.25" stroke-width="3" stroke-miterlimit="10"/>
<path d="M-436.586 815.186C-290.556 545.126 -104.462 470.463 -38.55 448.878C100.918 403.185 229.908 422.228 469.087 457.537C743.266 498.01 742.691 540.549 875.775 538.298C1093.79 534.587 1249.64 417.812 1493.02 235.446C1624.9 136.638 1806.42 -17.0919 1992 -240.469" stroke="#D5D5D5" stroke-opacity="0.25" stroke-width="3" stroke-miterlimit="10"/>
</svg>
