<svg width="399" height="214" viewBox="0 0 399 214" fill="none" xmlns="http://www.w3.org/2000/svg">
    <mask id="mask0_177_64437" style="mask-type:alpha" maskUnits="userSpaceOnUse" x="0" y="0" width="399" height="214">
    <path fill-rule="evenodd" clip-rule="evenodd" d="M197.146 6.07481C238.049 2.34341 283.116 -6.00245 318.226 7.08411C353.807 20.3462 361.429 48.4405 374.635 72.2299C387.934 96.1849 407.666 121.053 394.845 145.101C381.999 169.195 344.737 185.429 307.743 197.697C274.068 208.864 235.601 209.43 197.146 210.66C156.232 211.969 112.141 218.234 77.6034 205.057C42.4078 191.629 28.9156 165.618 16.5844 141.773C4.41966 118.249 -8.73381 92.4837 7.71458 69.9104C23.6976 47.9757 65.371 38.7196 100.237 26.9703C130.902 16.6368 162.347 9.24937 197.146 6.07481Z" fill="#EEF7F9"/>
    </mask>
    <g mask="url(#mask0_177_64437)">
    <path d="M195.869 177.909C231.85 177.909 261.019 148.741 261.019 112.759C261.019 76.778 231.85 47.6094 195.869 47.6094C159.887 47.6094 130.719 76.778 130.719 112.759C130.719 148.741 159.887 177.909 195.869 177.909Z" fill="#F1F4FB"/>
    <path d="M191.968 140.548C192.19 140.038 192.491 139.593 192.87 139.201C193.25 138.821 193.694 138.521 194.217 138.298C194.727 138.076 195.277 137.971 195.865 137.971C196.453 137.971 197.003 138.076 197.513 138.298C198.023 138.521 198.467 138.821 198.86 139.201C199.239 139.58 199.54 140.025 199.762 140.548C199.984 141.058 200.089 141.607 200.089 142.195C200.089 142.784 199.984 143.333 199.762 143.843C199.54 144.353 199.239 144.798 198.86 145.19C198.48 145.569 198.036 145.87 197.513 146.092C197.003 146.315 196.453 146.419 195.865 146.419C195.277 146.419 194.727 146.315 194.217 146.092C193.707 145.87 193.263 145.569 192.87 145.19C192.491 144.811 192.19 144.366 191.968 143.843C191.746 143.333 191.641 142.784 191.641 142.195C191.641 141.607 191.746 141.058 191.968 140.548ZM202.011 74.1814C202.011 71.7753 201.554 69.9706 200.638 68.7675C199.723 67.5644 198.127 66.9629 195.865 66.9629C193.603 66.9629 192.007 67.5644 191.092 68.7675C190.176 69.9706 189.719 71.7753 189.719 74.1814V95.8633L192.896 128.164V128.085C193.04 129.158 193.406 129.89 193.995 130.295C194.583 130.688 195.211 130.884 195.865 130.884C196.519 130.884 197.133 130.688 197.709 130.308C198.284 129.929 198.65 129.21 198.794 128.164L202.024 95.8633V74.1814H202.011Z" fill="#623ECA"/>
    <path opacity="0.31" d="M490.434 191.622C482.561 191.661 472.283 186.378 467.078 174.452C460.657 159.74 464.005 143.904 467.222 128.578C467.471 127.414 467.719 126.237 467.954 125.086L468.137 124.197C471.799 106.477 475.591 88.1432 475.657 69.6915C475.696 58.4321 473.447 46.9373 469.341 37.3387C464.424 25.844 456.957 17.3831 447.75 12.8323C439.106 8.56916 429.403 8.16377 421.792 11.7207C415.018 14.8985 410.415 20.757 408.506 28.6686C405.341 41.7457 407.931 55.3982 410.415 68.6061C410.742 70.3061 411.056 71.9799 411.357 73.6538C411.527 74.5561 411.684 75.4715 411.854 76.3869C415.345 95.4272 419.308 117.004 406.597 132.893C402.713 137.758 398.358 140.282 393.284 140.635C380.037 141.55 364.907 127.191 352.758 115.657C348.024 111.159 343.931 107.275 340.453 104.764C318.523 88.8625 298.907 83.7101 280.56 89.0586L279.056 85.8155L272.19 88.9802L270.804 85.9593C270.281 84.8086 268.921 84.3116 267.77 84.8347L250.208 92.9425L249.868 92.1971C249.593 91.6087 248.887 91.3471 248.299 91.6217L230.971 99.6249C230.383 99.8995 230.121 100.606 230.396 101.194L230.736 101.94L223.125 105.457C221.974 105.98 221.477 107.34 222.001 108.491L224.289 113.434L206.883 121.516C205.484 122.157 204.87 123.818 205.523 125.217C206.164 126.616 207.825 127.231 209.224 126.577L226.63 118.508L228.945 123.517C229.468 124.668 230.828 125.164 231.978 124.641L239.589 121.124L239.929 121.869C240.204 122.457 240.91 122.719 241.499 122.444L258.826 114.441C259.414 114.167 259.676 113.46 259.401 112.872L259.061 112.127L276.624 104.019C277.774 103.496 278.271 102.136 277.748 100.985L276.702 98.7357L276.349 97.9772L283.214 94.8125L281.541 91.1771C299.064 86.2078 317.921 91.2686 339.08 106.634C342.427 109.067 346.468 112.898 351.15 117.331C363.638 129.179 379.174 143.917 393.441 142.936C399.117 142.544 404.151 139.654 408.414 134.331C421.779 117.619 417.725 95.4795 414.142 75.9554C413.972 75.04 413.802 74.1377 413.645 73.2353C413.344 71.5615 413.018 69.8745 412.704 68.1745C410.258 55.202 407.721 41.798 410.768 29.2179C412.508 22.0124 416.666 16.7031 422.786 13.8392C429.769 10.57 438.714 10.9753 446.73 14.9246C455.44 19.2139 462.527 27.2825 467.222 38.2541C471.211 47.5781 473.381 58.7459 473.355 69.6915C473.29 87.9078 469.524 106.124 465.888 123.739L465.705 124.628C465.47 125.792 465.221 126.943 464.973 128.12C461.677 143.799 458.264 160.002 464.973 175.394C467.209 180.52 470.818 185.162 475.134 188.484C479.841 192.106 485.151 193.989 490.46 193.963L490.434 191.622Z" fill="#623ECA"/>
    <path d="M271.105 81.3569L278.049 96.3955C278.572 97.5463 278.075 98.9063 276.925 99.4294L232.279 120.039C231.129 120.562 229.769 120.065 229.246 118.914L222.302 103.876C221.778 102.725 222.275 101.365 223.426 100.842L268.071 80.2322C269.222 79.7092 270.582 80.2061 271.105 81.3569Z" fill="#F7F1FB"/>
    <path opacity="0.14" d="M293.362 151.357L269.087 162.157L267.121 156.166L275.736 149.812L292.232 145.336L293.362 151.357Z" fill="#623ECA"/>
    <path d="M250.163 87.5948L259.709 108.27C259.984 108.858 259.722 109.564 259.134 109.839L241.807 117.842C241.218 118.117 240.512 117.855 240.238 117.267L230.691 96.5919C230.417 96.0034 230.678 95.2973 231.267 95.0226L248.594 87.0195C249.195 86.7448 249.902 87.0064 250.163 87.5948Z" fill="#623ECA"/>
    <path d="M257.583 107.394C257.78 107.826 257.597 108.323 257.165 108.519L242.113 115.463C241.682 115.659 241.185 115.476 240.989 115.045C240.793 114.613 240.976 114.116 241.407 113.92L256.459 106.976C256.877 106.78 257.387 106.963 257.583 107.394Z" fill="#F7F1FB"/>
    <path d="M255.962 103.878C256.159 104.309 255.975 104.806 255.544 105.002L240.492 111.946C240.061 112.143 239.564 111.959 239.368 111.528C239.171 111.096 239.355 110.599 239.786 110.403L254.838 103.459C255.256 103.263 255.766 103.446 255.962 103.878Z" fill="#F7F1FB"/>
    <path d="M254.341 100.358C254.537 100.79 254.354 101.287 253.923 101.483L238.871 108.427C238.44 108.623 237.943 108.44 237.746 108.008C237.55 107.577 237.733 107.08 238.165 106.884L253.217 99.9399C253.635 99.7437 254.145 99.9268 254.341 100.358Z" fill="#F7F1FB"/>
    <path d="M252.705 96.8417C252.901 97.2733 252.718 97.7702 252.286 97.9664L237.234 104.91C236.803 105.106 236.306 104.923 236.11 104.492C235.914 104.06 236.097 103.563 236.528 103.367L251.58 96.4232C252.012 96.2271 252.508 96.4102 252.705 96.8417Z" fill="#F7F1FB"/>
    <path d="M251.084 93.3103C251.28 93.7419 251.097 94.2388 250.665 94.435L235.613 101.392C235.182 101.588 234.685 101.405 234.489 100.974C234.293 100.542 234.476 100.045 234.907 99.8489L249.959 92.905C250.377 92.7088 250.887 92.8919 251.084 93.3103Z" fill="#F7F1FB"/>
    <path d="M249.462 89.7928C249.659 90.2243 249.475 90.7212 249.044 90.9174L233.992 97.8613C233.561 98.0575 233.064 97.8744 232.868 97.4429C232.671 97.0113 232.855 96.5144 233.286 96.3182L248.338 89.3743C248.756 89.1782 249.266 89.3743 249.462 89.7928Z" fill="#F7F1FB"/>
    <path d="M224.613 108.871L226.954 113.932L209.535 121.974C208.136 122.615 206.475 122.014 205.834 120.614C205.193 119.215 205.795 117.554 207.194 116.914L224.613 108.871Z" fill="#623ECA"/>
    <path d="M272.489 84.3851L276.648 93.3965L283.511 90.2287L279.351 81.2173L272.489 84.3851Z" fill="#623ECA"/>
    <path d="M278.531 85.1747C297.545 78.6623 317.893 83.5532 340.752 100.148C344.231 102.672 348.324 106.556 353.058 111.041C365.206 122.575 380.336 136.921 393.583 136.018C398.657 135.665 402.999 133.141 406.896 128.277C419.594 112.388 415.644 90.8109 412.153 71.7707C411.983 70.8553 411.813 69.9399 411.656 69.0376C411.355 67.3768 411.041 65.6899 410.714 63.9898C408.217 50.782 405.64 37.1164 408.805 24.0524C410.714 16.1408 415.318 10.2823 422.091 7.10453C429.702 3.54756 439.406 3.95295 448.049 8.21608C457.256 12.7538 464.736 21.2278 469.64 32.7225C473.746 42.3342 475.995 53.8159 475.956 65.0752C475.891 83.527 472.098 101.861 468.437 119.581L468.254 120.47C468.018 121.634 467.77 122.797 467.521 123.961C464.304 139.275 460.957 155.111 467.377 169.836C472.582 181.762 482.848 187.058 490.733 187.006L490.746 189.334C485.424 189.36 480.128 187.464 475.42 183.854C471.104 180.533 467.495 175.89 465.259 170.764C458.55 155.372 461.964 139.157 465.259 123.491C465.507 122.327 465.756 121.163 465.991 119.999L466.174 119.11C469.823 101.495 473.589 83.2785 473.641 65.0622C473.681 54.1166 471.497 42.9488 467.508 33.6249C462.813 22.6532 455.726 14.5846 447.016 10.2953C439 6.34606 430.055 5.94067 423.072 9.20994C416.952 12.0738 412.807 17.3962 411.054 24.5886C408.007 37.1687 410.544 50.5858 412.99 63.5452C413.317 65.2452 413.631 66.9322 413.931 68.6061C414.101 69.5084 414.258 70.4107 414.428 71.3261C418.011 90.8502 422.065 112.99 408.701 129.702C404.437 135.025 399.403 137.928 393.727 138.307C379.46 139.288 363.925 124.537 351.436 112.702C346.754 108.269 342.714 104.424 339.366 102.005C317.161 85.894 297.506 81.1077 279.264 87.3586L278.531 85.1747Z" fill="#623ECA"/>
    <path opacity="0.31" d="M170.445 123.81L183.299 118.344L176.682 102.782L163.828 108.249L163.501 107.49C162.951 106.196 161.461 105.594 160.166 106.143L157.695 107.189L157.511 106.758C157.302 106.248 156.714 106.026 156.217 106.235L153.248 107.49C152.738 107.699 152.516 108.288 152.725 108.785L152.908 109.216L151.509 109.818L151.326 109.386C151.117 108.876 150.528 108.654 150.031 108.863L147.063 110.119C146.553 110.328 146.331 110.916 146.54 111.413L146.723 111.845L129.304 119.247C128.01 119.796 127.408 121.287 127.957 122.581L129.592 126.413L123.812 128.871L124.832 131.264C110.382 137.476 94.1399 144.315 78.382 144.76C71.6342 144.956 58.5441 142.458 46.6701 123.562C43.427 118.397 40.7985 112.878 38.6538 108.157C38.2877 107.333 37.9215 106.457 37.5423 105.529C35.6984 101.069 33.6192 96.0086 28.7545 93.5501C21.7975 90.0454 15.5989 93.9816 10.6035 97.1463C10.0019 97.5255 9.40038 97.9047 8.81191 98.2709C7.21651 99.2386 5.58188 100.298 3.99955 101.318C-4.34363 106.693 -12.9745 112.25 -22.3246 111.322C-30.7724 110.485 -38.3048 104.901 -42.4895 96.3878C-50.8588 79.3484 -49.4596 62.0997 -38.2394 43.6871C-28.3531 27.4454 -12.6737 13.0737 1.16182 0.388931C3.25416 -1.5334 5.2288 -3.33804 7.16421 -5.14268C11.1004 -8.80426 15.5335 -13.1589 18.3713 -18.6121C21.6013 -24.8106 22.1113 -31.4799 19.7967 -36.8808C17.809 -41.51 13.6374 -45.4593 7.39959 -48.6109C-2.73515 -53.6979 -13.4845 -55.8556 -24.587 -54.9925C-34.2117 -54.2471 -44.3987 -51.2002 -54.8604 -45.9301C-73.5476 -36.5146 -90.247 -21.816 -105.521 -7.32655L-116.375 2.97819L-113.001 6.53516L-102.147 -3.76958C-87.1608 -17.9975 -70.7883 -32.4215 -52.6634 -41.5493C-42.7772 -46.5316 -33.2048 -49.4086 -24.2208 -50.1017C-14.0207 -50.8863 -4.14748 -48.9117 5.12418 -44.217C10.3027 -41.5885 13.7027 -38.4631 15.2328 -34.9192C16.9459 -30.9307 16.4751 -25.6737 13.9643 -20.8483C11.4927 -16.0882 7.3996 -12.0866 3.76417 -8.71272C1.84184 -6.92116 -0.132805 -5.11652 -2.21207 -3.20727C-16.283 9.69981 -32.237 24.3331 -42.4895 41.1633C-48.178 50.5134 -51.4473 59.3927 -52.4935 68.3374C-53.6704 78.5114 -51.8134 88.6854 -46.9488 98.5847C-46.0072 100.507 -44.9218 102.299 -43.7057 103.946C-38.5402 110.956 -31.0732 115.428 -22.8739 116.239C-11.8106 117.337 -2.02898 111.034 6.60189 105.476C8.23653 104.43 9.77962 103.436 11.3227 102.495C11.9373 102.116 12.552 101.723 13.1927 101.331C18.5282 97.944 22.3467 95.8778 26.4921 97.9701C29.7222 99.6048 31.3699 103.58 32.9522 107.438C33.3315 108.366 33.7238 109.321 34.1422 110.223C36.3522 115.088 39.0723 120.803 42.4723 126.204C48.1216 135.201 60.3225 150.213 78.4866 149.69C95.1599 149.219 111.872 142.184 126.715 135.802L127.735 138.208L133.515 135.75L135.189 139.686C135.738 140.981 137.229 141.582 138.523 141.033L155.942 133.631L156.125 134.063C156.335 134.573 156.923 134.795 157.42 134.586L160.388 133.331C160.898 133.121 161.121 132.533 160.911 132.036L160.728 131.604L162.128 131.003L162.311 131.434C162.52 131.944 163.108 132.167 163.605 131.957L166.574 130.702C167.084 130.493 167.306 129.904 167.097 129.407L166.914 128.976L169.385 127.93C170.68 127.38 171.282 125.89 170.732 124.595L170.445 123.81Z" fill="#623ECA"/>
    <path d="M163.192 126.431C163.402 126.941 163.991 127.163 164.487 126.953L167.454 125.693C167.964 125.483 168.185 124.894 167.975 124.397L167.792 123.966L170.262 122.916C171.555 122.365 172.155 120.874 171.604 119.58L164.308 102.499C163.757 101.205 162.265 100.606 160.971 101.157L158.501 102.206L158.317 101.775C158.107 101.266 157.519 101.044 157.022 101.254L154.055 102.514C153.546 102.724 153.324 103.313 153.534 103.809L153.718 104.24L152.319 104.844L152.136 104.413C151.926 103.903 151.337 103.682 150.84 103.892L147.874 105.151C147.364 105.361 147.142 105.95 147.352 106.447L147.536 106.878L130.128 114.305C128.835 114.856 128.235 116.348 128.786 117.642L136.082 134.723C136.633 136.017 138.125 136.616 139.419 136.065L156.827 128.638L157.01 129.069C157.22 129.579 157.809 129.8 158.306 129.59L161.272 128.33C161.782 128.12 162.004 127.532 161.794 127.035L161.61 126.604L163.008 126L163.192 126.431Z" fill="#F7F1FB"/>
    <path opacity="0.14" d="M107.383 98.3571L126.606 90.2233L122.947 83.4051L103.567 91.9467L105.323 96.526L107.383 98.3571Z" fill="#623ECA"/>
    <path d="M184.128 113.335L177.488 97.7842L164.643 103.268L171.282 118.819L184.128 113.335Z" fill="#623ECA"/>
    <path d="M177.839 101.333L176.848 99.0117L173.66 100.372L174.651 102.694L177.839 101.333Z" fill="white"/>
    <path d="M179.495 105.211L178.504 102.89L175.317 104.25L176.308 106.572L179.495 105.211Z" fill="white"/>
    <path d="M181.159 109.083L180.168 106.762L176.981 108.122L177.972 110.444L181.159 109.083Z" fill="white"/>
    <path d="M182.804 112.96L181.812 110.639L178.625 111.999L179.616 114.321L182.804 112.96Z" fill="white"/>
    <path d="M163.019 126.017L153.73 104.26L152.335 104.855L161.624 126.613L163.019 126.017Z" fill="#623ECA"/>
    <path d="M134.24 130.943L130.266 121.634L124.047 124.288L128.022 133.598L134.24 130.943Z" fill="#623ECA"/>
    <path d="M-43.477 99.5747C-44.6956 97.9288 -45.7837 96.1388 -46.728 94.2179C-51.5941 84.3387 -53.4791 74.1675 -52.3171 63.9788C-51.2972 55.0325 -48.041 46.1353 -42.3531 36.7899C-32.1385 19.9447 -16.206 5.28799 -2.15401 -7.63976C-0.0644826 -9.55208 1.89443 -11.3596 3.81413 -13.154C7.44459 -16.5332 11.5187 -20.5539 13.9964 -25.3045C16.5001 -30.1205 16.9632 -35.3913 15.2442 -39.3773C13.7221 -42.9189 10.3174 -46.0394 5.12198 -48.6602C-4.15656 -53.3413 -14.0326 -55.3014 -24.2316 -54.5018C-33.2145 -53.7955 -42.7827 -50.9045 -52.6617 -45.9076C-70.7731 -36.7532 -87.1244 -22.3051 -102.09 -8.05524L-112.929 2.26543L-116.321 -1.28655L-105.482 -11.6072C-90.2292 -26.1191 -73.5514 -40.8422 -54.8781 -50.2852C-44.4242 -55.5706 -34.2547 -58.6325 -24.618 -59.3921C-13.5169 -60.2715 -2.76435 -58.1295 7.32557 -53.0443C13.568 -49.8888 17.7454 -45.9587 19.7399 -41.3324C22.0755 -35.9219 21.5622 -29.2649 18.3413 -23.0616C15.5116 -17.6043 11.0849 -13.2431 7.15404 -9.57576C5.22129 -7.76828 3.2493 -5.96075 1.1598 -4.03535C-12.6571 8.66974 -28.3023 23.0775 -38.1778 39.3207C-49.3709 57.7628 -50.7317 75.0004 -42.3504 92.0276C-38.1532 100.535 -30.6126 106.107 -22.1636 106.932C-12.7991 107.847 -4.18947 102.276 4.14581 96.8893C5.72663 95.867 7.35971 94.8053 8.95369 93.8353C9.54162 93.4683 10.1426 93.0881 10.7436 92.708C15.7213 89.536 21.9271 85.5776 28.8893 89.0852C33.7576 91.5365 35.8573 96.5812 37.6947 101.051C38.0753 101.979 38.4427 102.854 38.8101 103.678C40.9617 108.395 43.5983 113.91 46.849 119.071C58.7507 137.95 71.8445 140.428 78.592 140.222C94.7677 139.741 111.457 132.524 126.185 126.147L128.315 125.228L130.257 129.737L128.127 130.655C112.993 137.203 95.8602 144.617 78.73 145.126C60.5798 145.676 48.3568 130.681 42.6812 121.692C39.2732 116.296 36.5448 110.586 34.3276 105.724C33.9209 104.823 33.5272 103.869 33.1335 102.941C31.5456 99.0983 29.892 95.1122 26.6596 93.4823C22.498 91.3961 18.6956 93.4679 13.3651 96.8627C12.738 97.269 12.1109 97.6622 11.4968 98.0293C9.9551 98.9731 8.41346 99.9692 6.78037 101.018C-1.84233 106.588 -11.6147 112.906 -22.6795 111.824C-30.8408 111.038 -38.3013 106.576 -43.477 99.5747Z" fill="#623ECA"/>
    </g>
    </svg>
    