<svg width="589" height="372" viewBox="0 0 589 372" fill="none" xmlns="http://www.w3.org/2000/svg">
<g opacity="0.5">
<path d="M177.163 -0.572857C176.949 -2.33181 176.517 -4.05443 175.877 -5.6975C175.796 -6.00822 175.653 -6.29783 175.458 -6.5479C175.263 -6.79797 175.02 -7.00302 174.745 -7.14998C174.377 -7.2496 173.991 -7.25409 173.621 -7.16307L167.851 -6.24381C167.368 -6.22085 166.906 -6.03377 166.535 -5.71121C165.783 -4.88831 166.523 -3.56323 166.5 -2.42795C166.474 -1.15135 165.385 -0.11513 164.204 0.2277C162.998 0.481389 161.754 0.46533 160.555 0.180589L152.487 -1.12486C154.863 -1.91473 156.978 -3.38428 158.59 -5.36577C159.652 -6.67538 160.217 -9.12038 158.682 -9.74055C158.226 -9.87082 157.751 -9.91057 157.281 -9.85771C153.626 -9.82812 150.749 -13.0059 147.327 -14.3443C145.137 -15.1455 142.76 -15.2051 140.535 -14.5146C138.31 -13.8241 136.353 -12.4188 134.941 -10.4996L139.239 -10.2839C139.643 -10.3071 140.044 -10.1958 140.384 -9.96597C141.326 -9.16019 140.155 -7.61246 140.287 -6.35069C140.46 -4.71139 142.55 -4.36137 144.126 -4.19561C145.702 -4.02984 147.701 -2.69675 146.943 -1.24877C139.023 1.59176 130.963 -6.80138 122.646 -5.76821C120.54 -5.50672 118.553 -4.6456 116.497 -4.10413C103.942 -0.796423 90.9616 -9.62176 78.1355 -7.75271C75.2841 -7.24657 72.4816 -6.47698 69.7614 -5.45307C68.0157 -4.85626 66.1949 -4.21129 64.9265 -2.82718C63.6581 -1.44306 63.1754 0.92401 64.377 2.3713C61.0651 2.65527 57.7311 2.32529 54.5299 1.39667C55.3955 1.89772 56.1157 2.63217 56.6147 3.52295C57.1138 4.41373 57.3733 5.42797 57.3661 6.45921C52.195 7.33723 47.1608 8.93555 42.3989 11.2112C43.2876 12.75 44.3257 14.1899 45.4967 15.5081L38.9502 19.8873C41.1619 20.4676 42.3055 23.6079 41.0193 25.5691C43.3126 24.5068 44.7339 21.7587 47.1862 21.2015C48.7928 20.8365 50.4275 21.5209 51.9516 22.1637C53.4757 22.8066 55.1509 23.4299 56.7287 22.9475C58.3064 22.465 59.4702 20.3348 58.4676 18.9776C65.2114 16.9288 72.181 15.795 79.2036 15.6043C79.7454 15.5335 80.2948 15.6421 80.774 15.9146C81.6882 16.575 81.4477 18.0014 81.3984 19.1588C81.3492 20.3162 82.2155 21.8373 83.209 21.3156C82.0402 22.3709 83.0393 24.3576 84.1607 25.4673C85.282 26.577 86.6335 28.1083 85.947 29.5518C85.7678 29.9286 85.464 30.23 85.2916 30.6102C84.7827 31.7323 85.5906 33.0406 86.5436 33.7858C87.4966 34.531 88.6639 35.0518 89.3259 36.0837C89.9879 37.1157 89.6873 38.9219 88.5035 39.066L85.1389 34.6179C83.9894 35.859 83.2013 37.4141 82.8661 39.1027C86.434 42.1396 86.9706 48.3211 83.9836 51.9751C82.4572 53.8423 80.2865 54.9769 78.3919 56.4334C76.4973 57.8899 74.7443 59.9639 74.749 62.4159C74.7573 66.6523 74.4248 70.5881 75.9494 74.5158C78.7608 81.758 82.0066 88.8091 85.6677 95.6273C86.6291 97.4177 87.8716 99.3801 89.8192 99.6884C87.3578 93.449 85.1421 87.1127 83.172 80.6792C84.4551 80.6844 85.938 80.7905 86.6902 81.873C87.3131 82.7693 87.1793 83.988 87.3729 85.0759C87.619 86.1299 88.0295 87.1347 88.588 88.0504L100.342 109.851C101.316 111.658 102.434 113.598 104.296 114.33C105.487 114.798 106.864 114.71 107.96 115.384C108.819 115.912 109.398 116.849 110.274 117.347C112.75 118.753 116.193 116.056 118.507 117.735C119.168 118.215 119.589 118.978 120.199 119.527C122.336 121.455 125.842 120.165 128.309 121.603C129.899 122.529 130.723 124.382 131.571 126.061C133.695 130.267 137.132 134.388 141.685 134.723C143.115 134.828 144.576 134.546 145.974 134.877C147.371 135.208 148.748 136.478 148.523 137.953C148.138 140.48 149.338 143.248 149.016 145.785C148.429 150.407 142.134 152.437 141.593 157.065C141.474 158.078 141.66 159.124 141.428 160.115C141.144 161.331 140.267 162.321 139.956 163.529C139.366 165.818 140.941 168.097 142.671 169.637C144.402 171.177 146.466 172.506 147.413 174.662C148.413 176.941 147.921 179.598 148.247 182.081C148.957 187.501 153.453 191.519 158.079 194.109C159.489 194.899 161.003 195.663 161.915 197.032C163.106 198.82 162.988 201.176 163.385 203.311C164.359 208.541 168.588 212.851 168.708 218.177C168.793 221.962 166.772 225.397 165.565 228.968C164.433 232.391 164.023 236.027 164.364 239.629C164.705 243.231 165.787 246.714 167.539 249.841C168.442 251.428 169.522 252.925 170.161 254.647C171.301 257.718 170.931 261.21 171.982 264.316C173.372 268.422 177.19 271.814 176.825 276.151C178.558 279.9 182.386 281.741 186.236 282.857L193.135 284.857C194.456 285.24 195.836 285.626 197.181 285.348C198.526 285.071 199.81 283.908 199.775 282.481C196.392 281.686 192.901 280.842 190.112 278.695C187.323 276.548 185.412 272.726 186.471 269.287C186.961 267.692 188.005 265.851 187.013 264.533C186.444 263.779 185.405 263.581 184.764 262.893C183.765 261.819 184.108 260.016 184.827 258.721C185.546 257.427 186.584 256.27 186.874 254.805C187.021 253.986 186.923 253.139 186.594 252.379C186.265 251.62 185.721 250.983 185.035 250.554C186.314 250.051 187.477 249.274 188.45 248.272C189.348 247.205 189.762 245.558 189.056 244.345C191.154 244.622 193.63 244.757 195.007 243.086C196.107 241.752 196.032 239.757 195.597 238.058C195.163 236.359 194.428 234.709 194.405 232.951C199.244 233.19 204.094 233.019 208.907 232.439C208.211 229.999 206.629 227.936 204.498 226.69C206.677 226.306 208.663 223.589 209.352 221.401C210.04 219.214 209.865 216.832 209.439 214.573C209.276 213.991 209.253 213.377 209.374 212.784C209.619 211.97 210.388 211.473 211.099 211.048L221.917 204.578C222.563 204.241 223.148 203.791 223.647 203.248C224.781 201.862 224.613 199.769 224.033 198.052C223.452 196.334 222.523 194.719 222.299 192.913C221.63 187.513 227.182 183.638 229.056 178.555C229.791 176.56 229.941 174.391 230.084 172.259C230.236 169.97 230.248 167.311 228.559 165.835C226.941 164.421 224.412 164.736 222.719 163.421C221.166 162.215 220.63 159.872 218.934 158.898C217.394 158.013 215.463 158.576 213.749 158.16C210.733 157.427 208.835 153.807 205.754 153.472C204.016 153.283 202.049 154.168 200.624 153.114C199.369 152.185 199.318 150.318 199.08 148.734C198.661 146.272 197.528 144.003 195.832 142.233C194.137 140.462 191.962 139.275 189.599 138.831C187.807 138.532 185.856 138.645 184.332 137.62C182.788 136.581 182.08 134.637 180.867 133.199C178.913 130.882 175.835 130.058 172.951 129.352L161.222 126.481C159.14 125.972 156.457 125.702 155.339 127.601C155.009 128.324 154.774 129.09 154.643 129.88C154.225 131.307 153.382 132.56 152.237 133.458C151.091 134.355 149.702 134.852 148.269 134.875C147.286 133.13 145.693 131.847 143.824 131.294C142.634 130.949 141.361 130.911 140.227 130.403C139.609 130.089 139.06 129.647 138.612 129.104C138.164 128.561 137.827 127.929 137.621 127.246C137.416 126.563 137.347 125.843 137.418 125.131C137.489 124.419 137.699 123.73 138.035 123.106C138.711 121.852 138.972 120.401 138.778 118.978C138.584 117.554 137.945 116.237 136.96 115.229C134.966 113.364 132.08 112.914 129.406 113.101C128.705 111.509 129.877 109.713 131.139 108.557C132.401 107.4 133.933 106.263 134.208 104.536C134.641 101.82 131.312 99.7563 128.784 100.566C126.256 101.376 124.643 103.933 123.577 106.453C122.965 107.898 122.444 109.421 121.479 110.64C120.514 111.859 118.96 112.732 117.49 112.341C115.408 111.787 114.605 109.212 114.144 107.028C113.526 104.096 112.904 101.124 113.034 98.1262C113.163 95.1282 114.134 92.0499 116.257 90.0203C119.717 86.713 125.024 87.0372 129.694 87.5648C128.591 86.2706 128.863 84.0895 130.044 82.8714C130.667 82.2949 131.415 81.8855 132.225 81.6784C133.034 81.4713 133.88 81.473 134.689 81.6832C136.096 81.9881 137.363 82.7772 138.287 83.9234C139.614 85.6079 139.991 87.8822 140.994 89.7942C141.997 91.7062 144.252 93.3369 146.098 92.3112C147.692 91.4252 147.945 89.1232 147.549 87.2874C147.152 85.4516 146.309 83.6665 146.453 81.7907C146.727 78.2115 150.29 76.0571 153.435 74.5831C156.579 73.109 160.18 71.1266 160.678 67.5737C160.695 66.8781 160.821 66.19 161.051 65.5367C161.399 64.9597 161.884 64.4851 162.459 64.1582C171.636 57.8434 180.965 51.4515 191.454 48.001C191.999 47.8214 192.064 48.021 192.62 47.8803C193.398 47.4119 192.882 46.1162 192.136 45.5942C191.39 45.0723 190.392 44.672 190.203 43.7569C190.064 43.0843 190.445 42.4238 190.543 41.7435C190.786 40.0717 188.866 38.5282 187.374 39.1965C186.531 38.0347 188.199 36.6847 189.547 36.2983C193.595 35.1383 197.75 34.4315 201.942 34.1899C202.425 34.1098 202.921 34.1976 203.352 34.4397C204.056 34.9475 203.966 36.1123 203.467 36.8371C202.968 37.562 202.192 38.0171 201.57 38.6304C200.891 39.3195 200.406 40.1897 200.17 41.146C199.933 42.1022 199.953 43.1079 200.227 44.0531C202.416 45.2122 204.795 46.4054 207.219 45.9971C209.642 45.5887 211.794 42.7531 210.654 40.4885C209.594 38.3795 206.407 37.9039 205.859 35.5925C205.217 32.8864 208.896 30.4795 208.067 27.8291C207.704 26.6681 206.593 25.9848 205.741 25.1466C204.734 24.1189 204.049 22.7981 203.776 21.3577C203.503 19.9173 203.654 18.4246 204.211 17.0756C202.822 17.3301 201.395 17.234 200.049 16.7954C198.703 16.3569 197.478 15.5888 196.476 14.5554C194.626 12.6113 193.15 9.54448 190.523 9.63147C188.112 9.71128 186.036 12.6399 183.781 11.7464C183.227 11.5266 182.642 11.0792 182.105 11.3414C181.929 11.4604 181.781 11.6196 181.672 11.8069C181.564 11.9941 181.498 12.2046 181.479 12.4223C180.906 15.2742 181.892 18.5235 180.399 20.9878C178.775 23.6695 175.017 24.0413 173.048 26.4595C171.979 27.7722 171.565 29.541 170.582 30.9249C169.6 32.3089 167.514 33.1888 166.335 31.9827C166.915 30.7422 167.073 29.3337 166.784 27.9873C166.495 26.641 165.776 25.4365 164.745 24.5708C163.65 23.8271 162.47 23.2294 161.232 22.7917C159.849 22.1821 158.533 21.4186 157.308 20.5144C156.694 20.1289 156.195 19.5732 155.867 18.9094C155.608 18.0783 155.643 17.1779 155.966 16.3712C156.564 14.5862 157.619 13.0052 159.016 11.7988C160.414 10.5924 162.102 9.80649 163.898 9.52591C165.468 9.3035 167.295 9.38186 168.334 8.13626C168.884 7.4772 169.172 6.48075 169.97 6.21308C170.481 6.1063 171.01 6.17426 171.481 6.4068L177.341 8.55453C177.995 8.86189 178.714 8.98583 179.429 8.91405C179.783 8.86438 180.106 8.67714 180.333 8.38988C180.56 8.10263 180.674 7.7366 180.652 7.36528C180.465 6.35196 178.968 5.86571 179.104 4.84363C179.18 4.51241 179.351 4.21308 179.594 3.98519C181.709 1.64138 184.296 -0.186548 187.168 -1.36776C190.041 -2.54897 193.129 -3.05424 196.211 -2.84737C196.951 -1.58249 195.781 -0.0846519 194.808 0.995141C193.834 2.07493 193.052 4.00426 194.229 4.83544C194.712 5.09178 195.248 5.21761 195.79 5.20132C197.232 5.40467 198.635 5.84749 199.943 6.51296C201.968 7.43056 203.954 8.43455 205.901 9.52492C205.729 8.18803 205.565 6.77962 206.052 5.52959C206.538 4.27956 207.922 3.2991 209.13 3.78591C210.294 4.25507 210.891 5.86029 212.131 6.00735C213.786 6.20353 214.439 3.65827 213.748 2.08065C213.057 0.503032 211.688 -0.817966 211.574 -2.54789C211.497 -3.71497 211.924 -5.1624 211.028 -5.86911C210.71 -6.08127 210.348 -6.21332 209.972 -6.25479L187.617 -10.5382C186.289 -10.7926 184.371 -10.5976 184.312 -9.19352C184.279 -8.40974 184.952 -7.63435 184.654 -6.91373C184.336 -6.14461 183.292 -6.21493 182.531 -5.9429C181.351 -5.52081 180.759 -4.06181 180.873 -2.768C181.08 -1.4824 181.558 -0.26055 182.273 0.809915C180.819 0.176719 178.617 0.0603333 177.163 -0.572857Z" fill="#00262E"/>
<path d="M216.339 -22.3056L219.483 -21.6764C218.905 -21.7031 218.327 -21.601 217.789 -21.3768C217.251 -21.1527 216.765 -20.8117 216.364 -20.3765C215.963 -19.9414 215.655 -19.4221 215.462 -18.8534C215.269 -18.2847 215.194 -17.6797 215.243 -17.0786C218.188 -16.0543 221.398 -17.051 224.5 -16.9149C227.602 -16.7787 231.211 -14.4716 230.681 -11.2864C230.521 -10.3232 229.987 -9.36076 230.265 -8.42712C230.459 -7.77273 231.014 -7.30841 231.327 -6.70572C231.979 -5.44984 231.457 -3.86133 230.634 -2.7197C229.811 -1.57806 228.705 -0.667152 227.982 0.546093C226.185 3.56361 227.206 7.46465 228.277 10.8358C228.586 12.1095 229.158 13.2981 229.952 14.3192C231.538 16.0751 234.122 16.2278 236.437 16.2629C238.122 16.2885 240.052 16.2019 241.117 14.8427C242.508 13.0683 241.536 10.2997 242.451 8.21716C243.283 6.32577 245.402 5.51434 247.322 4.93885C250.839 3.88454 254.424 2.9882 257.749 1.39569C261.878 -0.58181 265.736 -3.66353 270.275 -3.91808C271.548 -3.98949 272.853 -3.83303 274.079 -4.19625C275.305 -4.55947 276.47 -5.66352 276.378 -6.98762C276.298 -8.11896 275.379 -8.94972 274.661 -9.80259C273.942 -10.6554 273.378 -11.9669 274.038 -12.8692L285.934 -15.1827C285.091 -17.5754 284.434 -20.7266 286.371 -22.284C287.07 -22.846 288.006 -23.0706 288.602 -23.7499C289.616 -24.9078 289.106 -26.9023 287.935 -27.887C286.764 -28.8717 285.18 -29.1003 283.68 -29.23C278.465 -29.681 273.219 -29.383 267.993 -29.0847C257.777 -28.5017 247.562 -27.9186 237.346 -27.3356C235.29 -27.2182 232.915 -27.3975 231.029 -26.667C229.432 -26.0485 228.297 -24.9133 226.471 -24.5144C223.1 -23.7781 219.39 -24.2763 216.339 -22.3056Z" fill="#00262E"/>
<path d="M272.671 3.57439C272.351 3.5216 272.023 3.59898 271.756 3.79054C271.579 3.99309 271.474 4.2523 271.458 4.52541C271.255 5.73073 271.497 6.97141 272.135 7.99899C272.46 8.50308 272.909 8.90737 273.434 9.16987C273.96 9.43237 274.544 9.54352 275.125 9.49178C276.541 9.30378 277.584 8.04605 278.886 7.43232C280.892 6.48725 289.412 5.01399 283.519 1.69858C281.487 0.556014 280.175 1.56463 278.574 2.31709C276.753 3.28728 274.712 3.72198 272.671 3.57439Z" fill="#00262E"/>
<path d="M385.61 205.263C385.116 206.754 385.069 208.51 385.924 209.811C386.884 211.271 388.805 211.816 390.467 211.445C392.122 210.987 393.597 209.999 394.684 208.622C395.679 207.468 396.497 206.161 397.11 204.748C397.966 202.546 398.569 200.247 398.908 197.898L400.521 189.081C400.881 187.11 400.867 181.069 397.389 183.037C396.439 183.575 394.239 187.821 393.243 189.025C391.448 191.194 391.211 193.3 390.266 195.928C389.083 199.221 386.704 201.965 385.61 205.263Z" fill="#00262E"/>
<path d="M569.322 250.384C568.184 249.922 567.08 249.374 566.017 248.746C564.952 251.796 564.386 255.01 564.342 258.254L572.13 253.666C573.301 252.975 574.629 252.016 574.604 250.615C574.615 250.442 574.58 250.269 574.504 250.114C574.429 249.96 574.314 249.83 574.174 249.737C574 249.665 573.812 249.642 573.628 249.67C572.473 249.771 571.42 250.362 570.33 250.774C569.241 251.185 567.967 251.403 566.968 250.792" fill="#00262E"/>
<path d="M596.294 165.917C595.24 166.184 594.148 166.251 593.07 166.115C591.281 165.772 589.889 164.368 588.444 163.217C585.01 160.494 580.836 158.976 576.521 158.879C572.595 158.802 568.633 159.909 564.778 159.137C565.03 160.595 566.229 161.689 567.508 162.34C568.787 162.99 570.199 163.317 571.484 163.954C573.542 164.985 575.175 166.753 576.082 168.935C576.496 169.941 576.757 171.036 577.384 171.915C578.665 173.71 581.095 174.104 583.238 173.958C586.034 173.766 588.953 172.929 591.553 174.013C593.543 174.843 594.966 176.656 596.627 178.066C598.288 179.475 600.628 180.522 602.535 179.504C600.554 178.837 598.83 177.527 597.614 175.766C596.398 174.006 595.755 171.887 595.777 169.719C597.648 169.898 603.036 169.829 602.746 166.519C602.5 163.714 597.9 165.614 596.294 165.917Z" fill="#00262E"/>
<path d="M571.821 188.735C572.153 186.838 573.97 185.163 573.404 183.327C573.013 182.058 571.599 181.431 570.319 181.4C569.039 181.368 567.781 181.765 566.501 181.803C565.668 181.757 564.832 181.769 564.001 181.84C561.46 182.275 559.894 185.048 557.499 186.034C556.043 186.633 554.407 186.519 552.893 186.933C549.455 187.874 547.28 191.257 544.877 193.983C540.994 198.37 535.936 201.441 530.358 202.8C528.403 203.271 526.302 203.573 524.749 204.895C522.691 206.645 522.185 209.646 521.727 212.37C520.463 219.896 518.53 227.283 515.954 234.437L524.117 235.522C525.668 235.728 527.276 235.93 528.772 235.452C529.858 235.025 530.888 234.454 531.834 233.753C535.469 231.403 539.538 229.874 543.777 229.265C545.914 228.959 548.155 228.903 550.161 229.73C552.167 230.558 553.888 232.434 554.056 234.674C554.923 234.393 555.848 234.362 556.731 234.586C557.613 234.809 558.421 235.278 559.068 235.943C560.346 237.299 561.183 239.038 561.46 240.916C561.675 242.079 561.891 243.472 562.927 243.96C563.772 244.358 564.742 243.929 565.667 243.852C568.805 243.591 571.409 247.401 574.494 246.745C577.802 246.041 578.614 240.883 581.841 239.849C583.695 239.256 586.295 239.978 587.182 238.182C587.965 236.6 586.404 234.774 586.565 233.002C586.763 230.82 589.234 229.894 591.14 228.964C597.708 225.754 600.825 216.549 597.642 209.76C595.756 205.737 592.046 202.57 591.36 198.151C590.833 194.751 592.12 190.786 590.038 188.11C588.979 186.749 587.186 185.997 586.556 184.373C586.159 183.35 586.319 182.19 586.105 181.11C585.892 180.03 584.987 178.9 583.962 179.18C580.989 179.993 580.04 189.558 578.448 191.882C576.027 195.414 571.059 193.087 571.821 188.735Z" fill="#00262E"/>
<path d="M516.859 169.53C515.843 169.233 514.733 168.941 513.759 169.365C512.786 169.789 512.217 171.277 512.998 172.016C519.112 171.768 525.263 171.522 531.325 172.386C538.309 173.382 545.221 175.85 552.235 175.124C548.228 173.893 544.155 172.909 540.037 172.176L533.17 170.811C531.328 170.409 529.466 170.109 527.594 169.913C523.676 169.576 520.711 170.655 516.859 169.53Z" fill="#00262E"/>
<path d="M522.978 147.356C522.47 147.312 521.842 147.274 521.579 147.729C521.328 148.163 521.615 148.736 521.48 149.223C521.296 149.888 520.46 150.058 519.8 149.968C519.141 149.877 518.429 149.66 517.845 149.991C517.549 150.202 517.326 150.507 517.211 150.86C517.095 151.214 517.093 151.597 517.204 151.952C517.443 152.657 517.829 153.297 518.334 153.828C519.198 154.961 520.182 155.989 521.267 156.891C523.368 158.506 526.215 159.284 527.539 161.629C527.725 162.083 528.012 162.485 528.376 162.803C529.011 163.222 529.84 162.903 530.524 162.577L532.922 161.437C533.354 161.275 533.739 161.002 534.043 160.643C534.59 159.869 534.254 158.768 533.794 157.935C533.334 157.101 532.746 156.238 532.845 155.282C533.02 153.578 535.125 152.926 535.99 151.468C536.863 149.998 536.295 148.104 536.395 146.379C536.513 144.362 537.73 141.738 535.772 140.231C534.107 138.95 532.517 140.134 531.322 141.548C528.802 144.53 527.61 147.759 522.978 147.356Z" fill="#00262E"/>
<path d="M537.533 117.22C538.352 118.852 540.059 119.826 540.951 121.416C541.919 123.138 541.809 125.364 542.858 127.034C543.935 128.747 546.102 129.657 546.706 131.605C547.366 133.733 545.87 136.318 547.062 138.177C547.285 138.481 547.565 138.733 547.886 138.918C548.207 139.103 548.562 139.217 548.927 139.252C549.292 139.287 549.661 139.242 550.009 139.121C550.357 139 550.677 138.805 550.949 138.549C551.451 137.979 551.72 137.227 551.698 136.453C551.676 135.68 551.365 134.946 550.831 134.408C550.125 133.737 549.111 133.448 548.521 132.665C548.214 132.213 548.01 131.694 547.923 131.148C547.602 129.573 547.653 127.94 548.073 126.39C548.231 125.997 548.271 125.563 548.188 125.145C547.923 124.342 546.878 124.285 546.145 123.912C544.48 123.066 544.52 120.619 544.811 118.714C544.618 119.982 540.278 117.825 539.823 117.106C538.921 115.679 539.412 112.925 539.233 111.348C537.284 112.326 536.533 115.225 537.533 117.22Z" fill="#00262E"/>
<path d="M493.815 142.33C493.014 141.396 491.808 140.419 490.734 140.982C489.915 141.412 489.689 142.592 490.01 143.487C490.402 144.356 491.004 145.104 491.758 145.656C493.996 147.578 496.406 149.312 498.358 151.546C501.852 155.544 503.703 160.939 507.502 164.622C508.266 165.475 509.278 166.045 510.382 166.244C511.489 166.351 512.732 165.614 512.859 164.464C512.964 163.516 512.33 162.668 511.71 161.966C510.234 160.295 508.618 158.756 507.224 157.009C506.581 156.338 506.176 155.459 506.078 154.516C506.071 153.575 506.895 152.591 507.77 152.824C506.705 152.54 505.916 150.694 504.354 150.347C503.048 150.057 502.732 150.899 501.179 150.205C498.215 148.881 495.891 144.748 493.815 142.33Z" fill="#00262E"/>
<path d="M563.444 51.4183C562.594 51.1553 561.758 50.8444 560.94 50.4872C558.74 49.7995 555.829 51.4834 556.122 53.8557C556.317 55.4319 557.726 56.4946 558.504 57.8619C559.658 59.8894 559.35 62.4611 558.744 64.7318C558.595 65.4348 558.312 66.0995 557.911 66.6864C557.351 67.306 556.682 67.8074 555.94 68.1632C552.968 69.898 550.348 72.2159 548.224 74.9887C547.993 75.2447 547.832 75.5605 547.758 75.9033C547.653 76.7042 548.426 77.2877 548.863 77.9558C549.834 79.4398 549.132 81.4367 549.228 83.2296C549.214 83.4831 549.261 83.7364 549.367 83.9653C549.473 84.1943 549.633 84.3913 549.832 84.5378C550.417 84.8474 551.111 84.3216 551.428 83.7231C552.481 81.737 551.688 78.5491 553.663 77.5915C554.036 77.4104 554.489 77.334 554.738 76.9923C555.134 76.4502 554.752 75.6475 554.953 74.9996C555.254 74.0267 556.531 73.9831 557.512 74.0262C559.202 74.0998 560.89 73.8657 562.502 73.3345C563.135 73.1779 563.709 72.8316 564.154 72.3385C564.745 71.5712 564.692 70.4804 564.574 69.5049C563.983 64.642 562.504 59.9418 560.216 55.6581C561.951 55.8888 563.838 56.0887 565.336 55.1472C566.174 54.6201 567.179 53.0436 566.763 51.9705C566.106 50.2737 564.918 51.702 563.444 51.4183Z" fill="#00262E"/>
<path d="M341.029 78.1653C341.237 79.3248 341.441 80.5457 341.076 81.6622C340.711 82.7788 339.563 83.7118 338.479 83.3696C337.638 83.1041 337.152 82.2233 336.554 81.5518C333.232 77.8174 325.737 79.9795 323.685 75.3594C322.847 73.4738 323.416 71.2148 322.845 69.2243C322.485 68.0739 321.767 67.0807 320.806 66.4008C319.845 65.7208 318.694 65.3925 317.534 65.4675C316.476 65.6266 315.446 65.9467 314.478 66.4175C307.989 69.1233 301.177 70.8974 294.229 71.6909C292.908 71.7746 291.602 72.0221 290.338 72.428C287.485 73.505 285.536 76.259 284.148 79.0693C282.761 81.8796 281.737 84.9221 279.877 87.4188C277.922 90.0429 275.183 91.8804 272.628 93.8679C271.644 94.5284 270.825 95.4228 270.237 96.4775C269.683 97.6616 269.714 99.0389 269.757 100.355L270.28 116.343C270.347 118.399 270.431 120.529 271.315 122.369C272.419 124.667 274.599 126.172 276.112 128.202C277.656 130.288 278.46 132.866 278.388 135.498C278.356 136.557 278.255 137.808 279.047 138.473C279.528 138.798 280.092 138.967 280.666 138.958L301.435 140.728C305.089 141.039 309.138 141.551 311.523 144.45C312.649 145.817 313.553 147.784 315.278 147.931C316.017 147.994 316.737 147.678 317.477 147.617C319.343 147.463 320.983 148.938 322.017 150.563C323.584 153.039 324.294 155.996 324.033 158.949C323.864 160.802 323.312 162.604 323.193 164.461C322.74 171.53 328.495 177.67 328.606 184.753C328.672 188.92 326.772 192.812 324.921 196.506C327.909 201.22 325.462 207.498 326.652 213.01C327.781 218.239 331.968 222.332 333.011 227.58C333.489 229.983 333.517 232.94 335.551 234.177C336.444 234.63 337.434 234.837 338.425 234.776C344.406 234.85 350.319 233.448 355.679 230.686C358.195 229.386 360.803 227.446 361.242 224.557C361.596 222.228 360.462 219.622 361.616 217.593C362.977 215.202 366.463 215.391 368.465 213.553C371.713 210.57 369.181 204.881 370.497 200.585C371.68 196.723 375.752 194.672 377.77 191.206C378.564 189.715 379.134 188.106 379.46 186.436C380.385 182.443 380.961 178.371 381.18 174.27C381.234 171.779 381.41 169.292 381.709 166.819C383.885 152.741 397.251 143.314 401.591 129.79C402.005 128.498 402.2 126.778 401.096 126.047C400.442 125.722 399.7 125.641 398.995 125.818L389.421 127.075C388.231 127.231 386.971 127.377 385.879 126.863C384.787 126.348 384.004 124.91 384.583 123.817C386.209 120.75 382.864 116.874 381.378 113.731C377.376 105.268 372.61 97.2197 367.145 89.6957C366.795 89.3087 366.576 88.8134 366.521 88.285L369.238 88.3792C368.321 84.952 366.807 81.2017 363.609 79.948C361.807 79.2416 359.812 79.4859 357.889 79.5952C352.383 79.9085 346.479 79.0428 341.029 78.1653Z" fill="#00262E"/>
<path d="M357.894 0.931936C359.334 2.52526 360.949 4.21457 363.034 4.49228C366.716 4.98283 369.364 1.01781 371.05 -2.42625C371.112 -1.54824 371.501 -0.730204 372.134 -0.146141C372.767 0.437922 373.593 0.741919 374.438 0.701218C375.347 0.541975 376.214 0.188824 376.986 -0.336092C384.282 -4.48771 392.454 -6.68742 400.768 -6.73762C400.689 -7.39342 400.845 -8.05677 401.207 -8.59969C401.569 -9.14261 402.112 -9.52661 402.73 -9.67759C404.42 -10.0266 405.943 -8.50476 406.758 -6.92394C407.574 -5.34312 408.082 -3.51082 409.378 -2.32756C410.674 -1.1443 413.182 -1.19583 413.694 -2.90932C414.185 -4.55435 412.539 -5.95722 411.172 -6.92707C409.804 -7.89692 408.363 -9.69197 409.284 -11.1232C416.27 -12.7334 423.299 -14.3496 430.447 -14.6696C431.664 -14.6255 432.877 -14.843 434.01 -15.3086C435.1 -15.8656 435.966 -17.1301 435.673 -18.3571C434.113 -17.9753 432.479 -18.0858 430.98 -18.6747C429.481 -19.2636 428.184 -20.304 427.254 -21.6634C437.173 -22.5157 447.723 -23.2422 456.513 -18.3825C457.568 -16.0246 452.192 -14.0629 453.63 -11.9362C454.089 -11.2579 455.008 -11.1784 455.805 -11.163C461.913 -11.0449 468.057 -10.9291 474.097 -11.8893C476.304 -12.2403 478.533 -12.7357 480.749 -12.4511C484.44 -11.9771 487.597 -9.4129 491.228 -8.57687C492.706 -8.23659 494.363 -8.22506 495.609 -9.12011C496.854 -10.0152 497.39 -12.0532 496.369 -13.2167C499.788 -16.7057 505.462 -15.841 509.972 -14.1706C514.483 -12.5003 518.755 -9.8066 523.529 -9.43428C526.952 -9.16729 530.423 -10.126 533.805 -9.51664C535.931 -9.13369 537.909 -8.14909 539.987 -7.54417C543.916 -6.40007 548.072 -6.64158 552.152 -6.58652C562.561 -6.44051 572.856 -4.31041 582.528 -0.301704C583.786 0.124819 584.939 0.833979 585.904 1.77564C586.804 2.77909 587.263 4.33841 586.658 5.55839L576.664 4.03789C577.606 5.96803 580.042 6.29696 582.02 6.96281C583.999 7.62867 586.05 9.9035 584.861 11.6795C582.717 10.9688 580.775 13.2004 579.692 15.2535C578.609 17.3067 577.29 19.7656 575.043 19.8907C573.032 20.0027 570.599 18.2192 569.288 19.8116C571.099 22.191 572.651 24.7732 573.913 27.5103C575.208 30.3203 576.131 33.861 574.38 36.3892C574.104 36.8405 573.687 37.1779 573.198 37.3433C571.768 37.7202 570.839 35.8988 569.814 34.7949C568.522 33.4037 566.568 33.0097 564.818 32.3572C563.068 31.7048 561.224 30.4213 561.087 28.4912C561.002 27.2904 561.611 26.1741 562.06 25.0642C562.813 23.1934 563.143 21.167 563.023 19.1421C562.925 17.513 562.486 15.8185 561.363 14.6802C560.239 13.542 558.299 13.181 557.093 14.2234C556.53 14.7099 556.079 15.4879 555.348 15.517C554.057 15.5685 553.065 13.2241 552.026 14.0243C552.148 14.8771 551.978 15.7473 551.546 16.4828C548.446 19.2906 543.683 18.1027 539.686 19.0946C537.785 19.661 535.965 20.4885 534.274 21.5552C533.642 21.8369 533.104 22.3073 532.728 22.9071C532.229 23.9167 532.779 25.2097 533.658 25.881C534.591 26.4766 535.639 26.8491 536.727 26.9715C541.6 27.9325 546.544 29.4201 550.391 32.6792C554.238 35.9382 556.761 41.3257 555.544 46.3318L545.934 36.7707C546.299 40.7852 546.506 44.8108 546.555 48.8474C546.617 49.6356 546.513 50.4284 546.251 51.1703C545.566 52.7459 543.709 53.2761 542.082 53.6239C541.629 53.7134 541.2 53.9016 540.822 54.1762C540.444 54.4507 540.127 54.8053 539.89 55.2168C539.653 55.6282 539.503 56.0872 539.448 56.5635C539.394 57.0398 539.437 57.5226 539.575 57.9804C540.153 59.9424 541.594 61.472 542.914 62.9963C544.234 64.5205 545.533 66.2528 545.706 68.2971C545.878 70.3415 544.397 72.6458 542.431 72.5037C540.94 72.3959 539.834 71.0065 539.199 69.5986C538.563 68.1907 538.185 66.6224 537.229 65.4261C534.338 61.8053 527.844 63.3566 525.253 59.4965C524.593 60.2763 524.135 61.219 523.923 62.2348C523.711 63.2507 523.752 64.3062 524.042 65.301C525.247 64.5155 526.897 65.2453 527.802 66.3866C528.707 67.5279 529.135 68.9911 529.846 70.273C530.805 72.0027 532.332 73.5361 532.466 75.5288C532.43 76.2822 532.442 77.0373 532.502 77.7891C532.74 78.9965 533.72 79.8634 534.4 80.8726C535.981 83.2208 535.903 86.4466 534.884 89.1109C533.864 91.7752 532.034 94.0015 530.22 96.1599C527.053 99.9299 523.82 103.678 520.065 106.809C518.994 107.702 517.85 108.58 517.183 109.829C516.516 111.078 516.481 112.831 517.507 113.781C516.773 113.82 515.457 114.195 514.723 114.234C514.465 111.169 514.409 108.089 514.555 105.016C511.66 103.568 508.542 107.445 508.916 110.767C509.289 114.089 511.597 116.755 513.24 119.629C514.441 121.731 515.334 124.182 514.933 126.592C514.532 129.002 512.466 131.225 510.126 131.013C506.403 130.675 504.846 125.11 501.16 124.474C500.835 124.394 500.494 124.429 500.19 124.574C499.643 124.887 499.548 125.649 499.517 126.298C499.366 129.484 499.236 132.796 500.43 135.734C502.178 140.031 506.691 143.64 505.745 148.201C500.644 145.732 497.992 139.775 496.787 134.054C495.583 128.333 495.383 122.327 493.224 116.918C491.585 119.106 488.14 117.297 486.643 115.003C485.223 112.827 484.349 110.31 482.971 108.106C481.594 105.901 479.484 103.926 476.96 103.805C474.315 103.678 472.02 105.568 470.002 107.355C468.343 108.823 466.639 110.35 465.669 112.38C464.258 115.335 464.627 118.818 464.559 122.117C464.486 125.684 463.76 129.447 461.425 132.058C459.091 134.669 454.781 135.579 452.206 133.225C450.862 131.997 450.211 130.161 449.631 128.399C446.836 119.906 444.509 111.254 442.66 102.485C442.227 104.487 440.539 107.066 438.927 105.888C438.565 105.571 438.272 105.177 438.067 104.734C435.059 99.4259 429.489 96.2422 423.862 94.3333C418.234 92.4243 412.313 91.5339 406.748 89.4359C403.629 88.2598 400.65 86.7148 397.87 84.8313C397.161 85.9155 396.747 87.1792 396.672 88.4885C396.597 89.7977 396.863 91.1037 397.443 92.2681C398.678 94.5441 401.471 95.861 403.863 95.0654C405.098 94.6543 406.142 93.7611 407.368 93.3199C408.594 92.8787 410.24 93.0954 410.776 94.3254C411.289 95.5028 410.514 96.9271 410.898 98.1564C411.484 100.029 414.196 100.173 415.145 101.877C415.85 103.144 415.27 104.828 414.262 105.851C413.255 106.874 411.911 107.435 410.681 108.147C406.691 110.457 403.853 114.401 400.366 117.47C396.879 120.538 391.958 122.778 387.802 120.81C388.793 115.587 382.818 111.752 381.718 106.552C381.356 104.841 381.544 103.023 381.027 101.355C380.28 98.9405 378.222 97.2802 376.534 95.4503C374.487 93.2067 372.892 90.5588 371.844 87.663C370.795 84.7671 370.314 81.682 370.429 78.5895C370.521 76.4406 370.9 74.2566 370.43 72.162C369.959 70.0674 368.294 68.0401 366.23 68.135C361.516 68.3518 355.578 68.7169 353.105 64.5329C352.222 63.0396 351.838 60.8525 353.114 59.7084C354.015 58.9014 355.343 58.9774 356.526 59.0985L367.146 60.1864C369.631 60.4408 372.316 60.6508 374.447 59.2986C376.579 57.9464 377.503 54.3571 375.529 52.7663C374.087 51.6039 371.503 51.6669 371.084 49.8188C370.734 48.2796 372.371 46.5332 371.487 45.2468C370.853 44.3245 369.429 44.5804 368.565 45.2718C367.702 45.9632 367.076 46.9744 366.11 47.4979C364.415 48.4163 362.39 47.5423 360.567 46.9482C358.743 46.3542 356.299 46.3038 355.415 48.0671C354.426 50.0391 356.292 52.6232 355.31 54.5993C354.013 57.2119 349.618 55.7247 347.795 57.9719C345.704 60.5507 349.218 64.3959 348.513 67.6903C347.612 68.1546 346.612 68.3679 345.608 68.3092C344.605 68.2505 343.634 67.9219 342.789 67.3554C341.958 66.7669 341.296 65.9549 340.873 65.0058C340.449 64.0566 340.281 63.0059 340.386 61.9652C340.561 60.4832 341.303 58.9704 340.806 57.57C340.404 56.4377 339.312 55.7636 338.297 55.1797L327.976 49.2412C327.018 51.0921 328.229 53.3867 329.744 54.7769C331.259 56.1671 333.157 57.2141 334.152 59.0437C334.782 60.3113 334.923 61.7813 334.547 63.1536C334.171 64.5259 333.306 65.6969 332.128 66.4275C331.981 66.5335 331.813 66.605 331.636 66.6371C331.46 66.6692 331.279 66.661 331.105 66.6133C330.941 66.5125 330.797 66.3784 330.683 66.2188C330.569 66.0592 330.487 65.8775 330.442 65.6843C328.621 60.8319 325.887 56.0477 321.515 53.5129C317.144 50.9781 310.863 51.4992 307.997 55.7692C307.316 56.7834 306.859 57.9395 306.266 59.0118C303.115 64.7086 296.36 67.4063 290.048 67.2301C289.431 67.2657 288.817 67.1154 288.279 66.7972C287.259 66.0637 287.305 64.5071 287.461 63.2266L288.123 57.7924C288.257 56.7012 288.449 55.4951 289.279 54.8139C290.448 53.8537 292.135 54.4596 293.624 54.4373C294.752 54.3823 295.836 53.9675 296.73 53.249C297.624 52.5306 298.285 51.5433 298.622 50.421C298.922 49.2876 298.921 48.0902 298.616 46.9579C298.312 45.8256 297.716 44.8012 296.894 43.9952C296.212 43.3278 295.296 42.4893 295.656 41.5896C295.8 41.3407 295.994 41.1277 296.226 40.9654C296.457 40.8032 296.72 40.6957 296.995 40.6505C299.67 39.8418 302.496 39.6298 305.126 38.6755C307.756 37.7213 310.307 35.7689 310.93 32.9424C311.121 32.0761 311.207 31.0268 311.955 30.5974C312.33 30.4325 312.732 30.3469 313.139 30.3454C314.565 30.1342 315.863 29.3748 316.779 28.2168C317.694 27.0588 318.159 25.586 318.084 24.0884C319.344 23.1714 321.11 23.8459 322.329 24.8213C323.549 25.7967 324.625 27.0854 326.109 27.5059C328.874 28.2895 331.546 25.7403 334.412 25.7285C335.617 25.7235 336.864 26.1672 337.998 25.7418C339.147 25.3105 339.834 24.1193 340.716 23.2392C341.598 22.3591 343.146 21.8223 343.96 22.7704L343.267 17.421C344.663 17.7884 346.12 17.8404 347.537 17.5735C348.955 17.3066 350.301 16.727 351.486 15.8736L342.522 12.7198C342.21 12.6387 341.922 12.4784 341.684 12.2532C341.032 11.5225 341.68 10.3838 342.209 9.55314C343.477 7.56606 343.69 4.29286 341.605 3.30358C340.182 2.62833 338.549 3.43887 337.183 4.23186L330.64 8.0304C330.432 9.32534 331.953 10.0592 332.896 10.9315C333.466 11.4592 333.869 12.1542 334.053 12.9251C334.237 13.696 334.193 14.5068 333.926 15.251C333.659 15.9952 333.183 16.638 332.559 17.095C331.935 17.5519 331.192 17.8017 330.43 17.8114C330.861 18.3946 331.16 19.0713 331.306 19.7913C331.451 20.5113 331.439 21.2562 331.271 21.9709L326.869 22.3005C326.375 22.404 325.862 22.2997 325.441 22.0104C324.97 21.575 325.034 20.812 324.925 20.1663C324.662 18.6077 323.196 17.5153 321.7 17.2352C320.204 16.9552 318.674 17.3142 317.193 17.6687C316.564 17.9043 315.873 17.8877 315.256 17.6221C314.901 17.3825 314.632 17.0287 314.489 16.6147C313.84 14.9753 314.447 13.0482 315.49 11.6462C316.533 10.2442 317.96 9.21923 319.243 8.05203C322.309 5.25056 324.562 1.61206 325.747 -2.45246C328.17 -3.50968 330.679 -4.94614 333.102 -6.00339C336.839 -7.973 341.028 -8.81825 345.201 -8.4441L353.407 -8.28087C355.837 -8.23255 358.333 -8.17063 360.58 -7.2061C362.826 -6.24158 364.8 -4.15544 364.956 -1.63013C365.002 -1.34424 364.979 -1.05067 364.887 -0.776957C364.795 -0.503241 364.637 -0.258348 364.429 -0.0652962C364.112 0.115004 363.753 0.199347 363.392 0.178219C361.126 0.261141 360.16 0.849045 357.894 0.931936Z" fill="#00262E"/>
<path d="M292.479 27.7113C292.8 27.3953 293.031 26.9934 293.146 26.5497C293.262 26.1061 293.258 25.6378 293.134 25.1964C292.354 24.883 291.505 24.8025 290.684 24.964C289.862 25.1256 289.1 25.5228 288.483 26.111C287.997 26.623 287.578 27.1998 287.237 27.8263C286.158 29.6583 285.205 31.8465 285.83 33.8944C285.881 34.1177 285.974 34.3282 286.104 34.5135C286.234 34.6988 286.398 34.8551 286.587 34.9734C286.867 35.0905 287.169 35.1397 287.47 35.1175C288.658 35.1159 289.845 35.0398 291.024 34.8897C291.749 34.7975 292.59 34.5845 292.87 33.883C293.238 32.9608 292.347 31.9172 292.607 30.9559C292.777 30.526 293.036 30.1401 293.365 29.8251C293.528 29.6664 293.653 29.4704 293.731 29.2526C293.809 29.0347 293.837 28.801 293.812 28.57C293.708 28.1189 293.044 27.863 292.805 28.2549" fill="#00262E"/>
<path d="M298.636 19.3993C297.581 19.147 296.493 19.0759 295.416 19.1887C295.178 19.1813 294.941 19.2372 294.73 19.3511C294.524 19.5087 294.376 19.7331 294.307 19.9888C294.079 20.7493 294.135 21.5711 294.463 22.2906C294.792 23.01 295.368 23.5744 296.078 23.8711C296.465 23.9637 296.836 24.1188 297.177 24.3307C298.087 25.0666 297.507 26.5708 297.679 27.7577C297.873 29.0906 299.112 30.2094 298.885 31.5364C298.706 32.582 297.633 33.4098 297.806 34.4565C297.987 35.5528 299.323 35.8822 300.388 35.97C301.005 36.0825 301.64 36.0067 302.217 35.7517C302.795 35.3401 303.206 34.7202 303.371 34.0115C303.807 32.6603 303.99 31.2346 303.911 29.8115C303.906 29.1643 303.75 28.528 303.456 27.9578C303.135 27.506 302.78 27.0822 302.393 26.6905C300.353 24.2193 302.501 20.5333 298.636 19.3993Z" fill="#00262E"/>
<path opacity="0.8" d="M566.936 212.979C566.936 212.979 410.669 119.58 343.394 137.276C343.394 137.276 200.819 153.253 184.295 188.4C184.295 188.4 138.973 40.9275 122.449 36.0117" stroke="white" stroke-width="0.887024" stroke-miterlimit="10"/>
<path opacity="0.8" d="M184.295 188.403C210.497 115.65 446.55 35.0312 446.55 35.0312C413.03 43.8796 343.394 137.279 343.394 137.279C343.394 137.279 196.098 25.6913 122.449 36.0144C122.449 36.0144 446.786 47.0748 566.936 212.982" stroke="white" stroke-width="0.887024" stroke-miterlimit="10"/>
<path d="M122.449 43.1385C126.23 43.1385 129.295 39.9473 129.295 36.0107C129.295 32.0741 126.23 28.8828 122.449 28.8828C118.668 28.8828 115.604 32.0741 115.604 36.0107C115.604 39.9473 118.668 43.1385 122.449 43.1385Z" fill="white"/>
<path d="M184.292 195.529C188.072 195.529 191.137 192.338 191.137 188.401C191.137 184.465 188.072 181.273 184.292 181.273C180.511 181.273 177.446 184.465 177.446 188.401C177.446 192.338 180.511 195.529 184.292 195.529Z" fill="white"/>
<path d="M446.546 42.1581C450.326 42.1581 453.391 38.9668 453.391 35.0302C453.391 31.0936 450.326 27.9023 446.546 27.9023C442.765 27.9023 439.7 31.0936 439.7 35.0302C439.7 38.9668 442.765 42.1581 446.546 42.1581Z" fill="white"/>
<path d="M566.934 220.107C570.715 220.107 573.78 216.916 573.78 212.979C573.78 209.043 570.715 205.852 566.934 205.852C563.154 205.852 560.089 209.043 560.089 212.979C560.089 216.916 563.154 220.107 566.934 220.107Z" fill="white"/>
<path d="M343.392 144.404C347.173 144.404 350.238 141.213 350.238 137.276C350.238 133.34 347.173 130.148 343.392 130.148C339.612 130.148 336.547 133.34 336.547 137.276C336.547 141.213 339.612 144.404 343.392 144.404Z" fill="white"/>
</g>
</svg>
