<svg width="407" height="257" viewBox="0 0 407 257" fill="none" xmlns="http://www.w3.org/2000/svg">
    <g clip-path="url(#clip0_165_70279)">
    <path d="M397.313 89.0292C392.674 72.3729 361.85 90.4955 361.85 90.4955L369.894 75.8919C370.833 74.4256 371.714 72.9008 372.477 71.2586C376.528 62.2266 376.47 52.4909 372.477 44.1041C371.361 39.0016 368.015 31.6705 358.797 23.6356C341.242 8.38684 282.646 -1.99404 265.678 0.293272C248.71 2.58058 281.119 9.73576 281.119 9.73576H278.536C229.158 4.516 179.428 3.81221 130.109 4.8679C117.72 5.10249 105.332 5.51303 93.237 7.6244C89.7729 8.21089 86.0153 9.14927 83.9603 11.9644C74.7424 24.4567 112.436 25.6296 118.308 25.3951C92.415 28.738 63.7043 29.7937 39.6319 39.7641C36.2852 41.1716 32.9386 42.8138 30.4139 45.3944C27.8892 47.9749 26.2452 51.6112 26.7737 55.3061C28.4176 65.9802 43.1547 69.1472 51.4919 71.4932C51.4919 71.4932 3.52323 103.34 9.1597 119.527C11.5082 126.213 14.9723 133.251 21.4308 140.171C17.7318 144.804 14.5026 149.614 11.9779 154.775C10.4514 157.883 8.45514 162.223 10.1578 165.801C18.9648 184.158 151.481 247.206 257.693 229.259C285.934 224.45 313.999 216.591 338.717 202.574C363.318 188.674 388.388 165.684 394.612 136.711C394.788 135.773 394.964 134.834 395.082 133.954C398.898 120.524 401.188 102.929 397.313 89.0292Z" fill="#623ECA"/>
    <path opacity="0.8" d="M397.313 89.0292C392.674 72.3729 361.85 90.4955 361.85 90.4955L369.894 75.8919C370.833 74.4256 371.714 72.9008 372.477 71.2586C376.528 62.2266 376.469 52.4909 372.477 44.1041C371.361 39.0016 368.015 31.6705 358.797 23.6356C341.242 8.38683 282.646 -1.99404 265.678 0.293272C248.709 2.58058 281.119 9.73576 281.119 9.73576H278.536C229.158 4.516 179.428 3.81221 130.109 4.8679C117.72 5.10249 105.332 5.51303 93.2369 7.6244C89.7728 8.21089 86.0152 9.14927 83.9602 11.9644C74.7422 24.4567 112.436 25.6296 118.307 25.3951C92.4149 28.738 63.7042 29.7937 39.6317 39.7641C36.2851 41.1716 32.9384 42.8138 30.4138 45.3944C27.8891 47.9749 26.891 51.6112 26.8323 55.3061C26.5974 65.1591 42.45 68.7953 51.5505 71.4932C51.5505 71.4932 3.58183 103.34 9.2183 119.527C11.5668 126.213 15.0309 133.251 21.4894 140.171C17.7904 144.804 14.5612 149.614 12.0365 154.775C10.51 157.883 8.51374 162.223 10.2164 165.801C18.9647 184.158 151.48 247.206 257.693 229.259C285.934 224.45 313.999 216.591 338.717 202.574C363.318 188.674 388.388 165.684 394.612 136.711C394.788 135.773 394.964 134.834 395.082 133.954C398.898 120.524 401.188 102.929 397.313 89.0292Z" fill="white"/>
    <path d="M311.473 70.8479C311.473 70.8479 312.06 69.0298 315.054 68.4433C318.049 67.8568 321.63 71.1412 321.63 71.1412C321.63 71.1412 324.037 66.3319 326.445 66.0387C328.852 65.7454 331.553 67.8568 331.553 67.8568" stroke="#11082D" stroke-miterlimit="10"/>
    <path d="M303.664 82.1672C303.664 82.1672 304.251 80.3491 307.246 79.7626C310.24 79.1761 313.821 82.4605 313.821 82.4605C313.821 82.4605 316.229 77.6513 318.636 77.358C321.043 77.0648 323.744 79.1761 323.744 79.1761" stroke="#11082D" stroke-miterlimit="10"/>
    <path d="M332.141 82.285C332.141 82.285 332.61 80.936 334.9 80.4668C337.19 79.9976 339.891 82.5195 339.891 82.5195C339.891 82.5195 341.711 78.8833 343.531 78.6487C345.351 78.4141 347.406 79.9976 347.406 79.9976" stroke="#11082D" stroke-miterlimit="10"/>
    <path d="M365.371 94.3071C365.371 94.3071 365.665 93.4274 367.191 93.1342C368.659 92.8409 370.479 94.4831 370.479 94.4831C370.479 94.4831 371.653 92.0785 372.886 91.9612C374.061 91.7852 375.411 92.8409 375.411 92.8409" stroke="#11082D" stroke-miterlimit="10"/>
    <path d="M205.849 67.6814C202.737 53.7816 186.709 43.4594 172.735 45.3948C169.271 45.864 165.865 47.2129 163.223 49.6175C159.642 52.9019 160.522 56.5968 158.761 60.7022C158.291 61.8165 157.293 62.8135 156.119 63.0481C152.655 63.6346 149.837 60.1743 146.314 60.1743C143.672 60.1743 140.325 61.5819 138.857 63.8692C137.507 65.9806 138.446 69.6755 135.98 71.0831C133.221 72.6666 129.874 69.6755 126.939 70.7312C123.24 72.0801 124.942 74.778 123.592 76.4201C122.241 78.1209 119.541 77.4172 115.842 77.0653C112.143 76.7134 109.148 81.112 109.148 81.112H225.694C225.694 81.112 226.692 79.4112 222.348 72.7252C218.003 66.0392 211.955 70.7312 209.254 70.7312C206.554 70.6725 205.849 67.6814 205.849 67.6814Z" stroke="#11082D" stroke-miterlimit="10"/>
    <path d="M238.317 45.3356C237.084 39.7639 230.626 35.5998 225.048 36.4209C223.639 36.5969 222.289 37.1247 221.232 38.1217C219.823 39.412 220.116 40.9369 219.412 42.5791C219.236 43.0482 218.825 43.4588 218.355 43.5174C216.946 43.752 215.83 42.3445 214.421 42.3445C213.364 42.3445 212.014 42.9309 211.427 43.8107C210.898 44.6318 211.251 46.1566 210.252 46.6845C209.137 47.3296 207.786 46.098 206.612 46.5672C205.144 47.095 205.79 48.2094 205.262 48.8545C204.733 49.4996 203.618 49.265 202.15 49.1477C200.682 49.0305 199.449 50.7899 199.449 50.7899H246.185C246.185 50.7899 246.596 50.1448 244.835 47.4469C243.073 44.7491 240.666 46.6258 239.55 46.6258C238.611 46.5672 238.317 45.3356 238.317 45.3356Z" stroke="#11082D" stroke-miterlimit="10"/>
    <path d="M338.071 113.662C336.838 108.09 330.38 103.926 324.802 104.747C323.393 104.923 322.043 105.451 320.986 106.448C319.577 107.738 319.87 109.263 319.166 110.905C318.989 111.374 318.578 111.785 318.109 111.844C316.7 112.078 315.584 110.671 314.175 110.671C313.118 110.671 311.768 111.257 311.181 112.137C310.652 112.958 311.004 114.483 310.006 115.011C308.891 115.656 307.54 114.424 306.366 114.893C304.898 115.421 305.544 116.536 305.016 117.181C304.487 117.826 303.372 117.591 301.904 117.474C300.436 117.357 299.203 119.116 299.203 119.116H345.939C345.939 119.116 346.35 118.471 344.588 115.773C342.827 113.075 340.42 114.952 339.304 114.952C338.365 114.835 338.071 113.662 338.071 113.662Z" stroke="#11082D" stroke-miterlimit="10"/>
    <path d="M263.093 107.563C261.215 99 251.351 92.6659 242.779 93.8975C240.665 94.1908 238.551 95.0119 236.966 96.4781C234.794 98.4721 235.322 100.759 234.207 103.281C233.913 103.985 233.326 104.572 232.563 104.689C230.449 105.041 228.687 102.929 226.574 102.929C224.93 102.929 222.875 103.809 221.994 105.217C221.172 106.507 221.759 108.794 220.233 109.615C218.53 110.554 216.475 108.736 214.655 109.381C212.365 110.202 213.422 111.844 212.6 112.9C211.778 113.955 210.134 113.545 207.844 113.31C205.554 113.076 203.734 115.774 203.734 115.774H275.364C275.364 115.774 276.01 114.718 273.31 110.612C270.609 106.507 266.91 109.381 265.266 109.381C263.504 109.381 263.093 107.563 263.093 107.563Z" stroke="#11082D" stroke-miterlimit="10"/>
    <path d="M279.945 205.917C279.945 205.917 275.659 201.459 276.892 201.635C278.066 201.753 280.356 205.096 280.356 205.096C280.356 205.096 280.415 197.765 281.472 199.407C282.528 200.99 281.237 205.154 281.237 205.154C281.237 205.154 284.29 200.404 284.29 201.166C284.29 203.571 281.941 205.448 281.941 205.448C281.941 205.448 286.814 201.811 286.051 203.278C285.229 204.744 282.117 206.151 282.117 206.151C282.117 206.151 287.754 205.037 285.758 205.8C283.761 206.621 281.824 207.148 281.824 207.148H280.239C280.239 207.148 274.896 204.509 276.892 204.861C278.829 205.213 279.945 205.917 279.945 205.917Z" fill="#11082D"/>
    <path d="M336.427 192.017C336.427 192.017 333.08 188.557 334.02 188.674C334.959 188.792 336.721 191.372 336.721 191.372C336.721 191.372 336.721 185.683 337.601 186.915C338.423 188.146 337.425 191.372 337.425 191.372C337.425 191.372 339.774 187.677 339.774 188.264C339.774 190.14 337.954 191.607 337.954 191.607C337.954 191.607 341.77 188.792 341.124 189.906C340.478 191.02 338.071 192.135 338.071 192.135C338.071 192.135 342.474 191.255 340.889 191.9C339.304 192.545 337.836 192.956 337.836 192.956H336.603C336.603 192.956 332.435 190.903 334.02 191.196C335.605 191.489 336.427 192.017 336.427 192.017Z" fill="#11082D"/>
    <path d="M388.915 179.642C388.915 179.642 385.569 176.182 386.508 176.299C387.448 176.417 389.209 178.997 389.209 178.997C389.209 178.997 389.209 173.308 390.09 174.54C390.912 175.771 389.913 178.997 389.913 178.997C389.913 178.997 392.262 175.302 392.262 175.889C392.262 177.765 390.442 179.232 390.442 179.232C390.442 179.232 394.258 176.417 393.612 177.531C392.967 178.645 390.559 179.76 390.559 179.76C390.559 179.76 394.963 178.88 393.378 179.525C391.792 180.17 390.324 180.581 390.324 180.581H389.092C389.092 180.581 384.923 178.528 386.508 178.821C388.093 179.173 388.915 179.642 388.915 179.642Z" fill="#11082D"/>
    <path d="M322.042 207.911C322.042 207.911 318.049 203.806 319.165 203.923C320.28 204.04 322.394 207.149 322.394 207.149C322.394 207.149 322.394 200.345 323.392 201.87C324.39 203.336 323.157 207.207 323.157 207.207C323.157 207.207 325.976 202.809 325.976 203.512C325.976 205.741 323.803 207.501 323.803 207.501C323.803 207.501 328.324 204.158 327.62 205.506C326.856 206.855 323.979 208.146 323.979 208.146C323.979 208.146 329.205 207.09 327.385 207.852C325.506 208.615 323.745 209.084 323.745 209.084H322.277C322.277 209.084 317.345 206.621 319.165 206.973C321.044 207.325 322.042 207.911 322.042 207.911Z" fill="#623ECA"/>
    <path d="M243.307 190.023L208.079 150.611L200.388 156.769L161.754 98.7066L128.17 106.214L118.131 87.446L108.384 86.9181L89.8307 50.4971L62.1768 75.7162L48.8489 70.9656L0.234375 120.465" stroke="#11082D" stroke-miterlimit="10"/>
    <path d="M249.883 197.413L246.184 193.308" stroke="#11082D" stroke-miterlimit="10"/>
    <path d="M110.147 111.022L107.211 111.785" stroke="#11082D" stroke-miterlimit="10"/>
    <path d="M128.112 106.155L113.434 110.143" stroke="#11082D" stroke-miterlimit="10"/>
    <path d="M72.6875 89.2638L80.9074 77.1235L80.3202 72.9594L89.773 53.8398" stroke="#11082D" stroke-miterlimit="10"/>
    <path d="M69.2227 94.3662L71.2776 91.3164" stroke="#11082D" stroke-miterlimit="10"/>
    <path d="M56.4217 101.521L43.0938 119.585" stroke="#11082D" stroke-miterlimit="10"/>
    <path d="M49.4961 72.96L52.8427 80.467L60.358 86.5665L59.4773 97.4166L57.6572 99.8799" stroke="#11082D" stroke-miterlimit="10"/>
    <path d="M118.129 87.4463L111.2 94.0736L108.676 89.9095" stroke="#11082D" stroke-miterlimit="10"/>
    <path d="M398.955 161.637L344.939 123.574L328.499 146.682L308.243 139.937L276.89 183.807L256.634 179.467L246.535 188.147" stroke="#11082D" stroke-miterlimit="10"/>
    <path d="M344.939 123.574L338.48 151.784L330.906 148.441" stroke="#11082D" stroke-miterlimit="10"/>
    <path d="M308.422 141.638L292.569 187.736L281.707 185.8" stroke="#11082D" stroke-miterlimit="10"/>
    <path d="M307.716 138.294C293.683 138.294 282.234 149.613 282.234 163.572C282.234 170.023 284.7 175.947 288.693 180.404C290.513 180.111 293.918 179.935 297.617 181.225C302.549 182.926 305.602 185.624 306.248 186.269H308.538C309.184 185.624 312.296 182.867 317.169 181.225C321.22 179.876 324.86 180.169 326.563 180.463C330.614 176.005 333.08 170.082 333.08 163.572C333.139 149.613 321.748 138.294 307.716 138.294Z" fill="#BEAAF8"/>
    <path d="M319.577 173.718C318.814 174.07 317.992 174.48 317.229 174.891C316.466 175.301 315.702 175.77 314.998 176.24C314.704 176.416 314.469 176.592 314.235 176.826L318.403 169.084L312.708 178.058C312.121 178.527 311.534 178.996 311.005 179.465C310.066 180.286 309.185 181.108 308.305 181.929L308.011 173.483L314 164.393L307.952 172.252L307.717 164.744L307.306 173.19L306.895 181.635C306.132 180.932 305.369 180.228 304.547 179.524C303.901 178.996 303.255 178.468 302.609 177.94L297.208 168.733L301.2 176.885C300.965 176.709 300.731 176.533 300.496 176.416C299.791 175.946 299.028 175.477 298.265 175.067C297.501 174.656 296.738 174.246 295.916 173.894C294.331 173.131 292.746 172.427 291.102 171.841C292.687 172.545 294.213 173.307 295.74 174.128C296.503 174.539 297.208 175.008 297.971 175.419C298.676 175.888 299.38 176.357 300.026 176.885C301.318 177.941 302.551 179.055 303.784 180.228C304.84 181.283 305.839 182.339 306.778 183.395L306.25 194.128H308.774L308.422 183.864C309.479 182.632 310.653 181.401 311.827 180.286C313.002 179.113 314.235 177.999 315.585 176.943C316.231 176.416 316.935 175.946 317.64 175.477C318.345 175.008 319.108 174.598 319.871 174.187C321.398 173.366 322.924 172.545 324.509 171.9C322.748 172.252 321.104 172.955 319.577 173.718Z" fill="#11082D"/>
    <path d="M112.26 172.956C112.26 180.228 108.208 180.756 103.159 180.756C98.1098 180.756 94.0586 180.228 94.0586 172.956C94.0586 165.683 98.1098 150.552 103.159 150.552C108.208 150.552 112.26 165.683 112.26 172.956Z" fill="#BDAAF5"/>
    <path d="M106.212 176.24L104.744 176.357L108.678 173.718L105.86 175.126L106.212 174.011L104.979 175.595L103.452 176.357L103.335 171.138L104.157 169.202L103.335 170.316L103.276 167.267L105.742 163.924L103.218 166.504L103.1 159.877L102.924 164.1L101.339 162.34L102.924 164.921L102.689 171.665L101.339 170.786L100.047 168.557L100.575 170.258L98.0508 168.674L102.689 172.604L101.985 194.773H103.863L103.452 177.237L103.922 176.944L106.212 176.24Z" fill="#11082D"/>
    <path d="M356.975 147.972C356.975 162.165 348.99 163.221 339.185 163.221C329.38 163.221 321.395 162.165 321.395 147.972C321.395 133.779 329.38 104.161 339.185 104.161C348.99 104.161 356.975 133.779 356.975 147.972Z" fill="#623ECA"/>
    <path opacity="0.31" d="M356.975 147.972C356.975 162.165 348.99 163.221 339.185 163.221C329.38 163.221 321.395 162.165 321.395 147.972C321.395 133.779 329.38 104.161 339.185 104.161C348.99 104.161 356.975 133.779 356.975 147.972Z" fill="white"/>
    <path d="M345.232 154.424L342.296 154.6L349.929 149.439L344.468 152.195L345.232 150.084L342.707 153.075L339.771 154.6L339.537 144.395L341.122 140.641L339.478 142.753L339.36 136.829L344.234 130.378L339.36 135.363L339.067 122.401L338.773 130.671L335.661 127.211L338.715 132.313L338.304 145.45L335.603 143.691L333.137 139.292L334.135 142.753L329.262 139.527L338.245 147.327L336.894 190.552H340.593L339.83 156.242L340.652 155.714L345.232 154.424Z" fill="#11082D"/>
    <path d="M395.021 153.544C395.021 160.816 390.97 161.344 385.921 161.344C380.872 161.344 376.82 160.816 376.82 153.544C376.82 146.271 380.872 131.14 385.921 131.14C390.97 131.14 395.021 146.33 395.021 153.544Z" fill="#623ECA"/>
    <path opacity="0.5" d="M395.021 153.544C395.021 160.816 390.97 161.344 385.921 161.344C380.872 161.344 376.82 160.816 376.82 153.544C376.82 146.271 380.872 131.14 385.921 131.14C390.97 131.14 395.021 146.33 395.021 153.544Z" fill="white"/>
    <path d="M389.032 156.828L387.506 156.945L391.44 154.306L388.621 155.714L389.032 154.599L387.741 156.183L386.214 156.945L386.097 151.725L386.919 149.79L386.097 150.904L386.038 147.855L388.504 144.57L385.979 147.092L385.862 140.465L385.744 144.688L384.1 142.928L385.686 145.509L385.51 152.253L384.1 151.374L382.809 149.145L383.337 150.846L380.812 149.262L385.451 153.192L384.746 175.361H386.684L386.273 157.825L386.684 157.532L389.032 156.828Z" fill="#11082D"/>
    <path d="M24.1894 147.444C24.1894 154.716 20.1382 155.244 15.0888 155.244C10.0395 155.244 5.98828 154.716 5.98828 147.444C5.98828 140.171 10.0395 125.04 15.0888 125.04C20.1382 125.04 24.1894 140.171 24.1894 147.444Z" fill="#623ECA"/>
    <path opacity="0.5" d="M24.1894 147.444C24.1894 154.716 20.1382 155.244 15.0888 155.244C10.0395 155.244 5.98828 154.716 5.98828 147.444C5.98828 140.171 10.0395 125.04 15.0888 125.04C20.1382 125.04 24.1894 140.171 24.1894 147.444Z" fill="white"/>
    <path d="M18.1416 150.728L16.6151 150.846L20.5488 148.206L17.7306 149.614L18.1416 148.5L16.8499 150.025L15.3821 150.787L15.2647 145.567L16.0279 143.69L15.2059 144.746L15.1472 141.755L17.6719 138.412L15.1472 140.993L14.9711 134.307L14.8537 138.588L13.2684 136.77L14.795 139.409L14.6188 146.154L13.2097 145.215L11.9767 142.987L12.4464 144.746L9.98047 143.104L14.5601 147.092L13.8555 169.203H15.7931L15.3821 151.667L15.7931 151.374L18.1416 150.728Z" fill="#11082D"/>
    <path d="M69.2823 130.963C55.2499 130.963 43.8008 142.282 43.8008 156.241C43.8008 162.692 46.2667 168.616 50.2592 173.073C52.0793 172.78 55.4847 172.604 59.1836 173.894C64.1156 175.595 67.1686 178.293 67.8145 178.938H70.1043C70.7501 178.293 73.8619 175.536 78.7351 173.894C82.7864 172.545 86.4266 172.838 88.1293 173.132C92.1805 168.674 94.6464 162.751 94.6464 156.241C94.7051 142.282 83.3148 130.963 69.2823 130.963Z" fill="#623ECA"/>
    <path opacity="0.33" d="M69.2823 130.963C55.2499 130.963 43.8008 142.282 43.8008 156.241C43.8008 162.692 46.2667 168.616 50.2592 173.073C52.0793 172.78 55.4847 172.604 59.1836 173.894C64.1156 175.595 67.1686 178.293 67.8145 178.938H70.1043C70.7501 178.293 73.8619 175.536 78.7351 173.894C82.7864 172.545 86.4266 172.838 88.1293 173.132C92.1805 168.674 94.6464 162.751 94.6464 156.241C94.7051 142.282 83.3148 130.963 69.2823 130.963Z" fill="white"/>
    <path d="M81.0853 166.328C80.322 166.68 79.5 167.091 78.7368 167.501C77.9735 167.912 77.2102 168.381 76.5057 168.85C76.2121 169.026 75.9772 169.202 75.7424 169.437L79.911 161.695L74.2158 170.668C73.6287 171.137 73.0416 171.607 72.5132 172.076C71.5737 172.897 70.693 173.718 69.8123 174.539L69.5188 166.094L75.5075 157.003L69.4601 164.862L69.2252 157.355L68.8142 165.8L68.4032 174.246C67.64 173.542 66.8767 172.838 66.0547 172.134C65.4089 171.607 64.763 171.079 64.1172 170.551L58.7155 161.343L62.708 169.495C62.4732 169.319 62.2383 169.143 62.0035 169.026C61.2989 168.557 60.5357 168.088 59.7724 167.677C59.0091 167.266 58.2458 166.856 57.4239 166.504C55.8386 165.742 54.2533 165.038 52.6094 164.451C54.1946 165.155 55.7212 165.918 57.2477 166.739C58.011 167.149 58.7156 167.618 59.4788 168.029C60.1834 168.498 60.8879 168.967 61.5338 169.495C62.8255 170.551 64.0584 171.665 65.2914 172.838C66.3483 173.894 67.3464 174.95 68.2858 176.005L67.7574 186.738H70.2821L69.9298 176.474C70.9866 175.243 72.1609 174.011 73.3351 172.897C74.5094 171.724 75.7424 170.61 77.0928 169.554C77.7386 169.026 78.4432 168.557 79.1477 168.088C79.8523 167.618 80.6156 167.208 81.3789 166.797C82.9054 165.976 84.4319 165.155 86.0172 164.51C84.2558 164.921 82.6705 165.624 81.0853 166.328Z" fill="#11082D"/>
    <path d="M139.913 206.327V183.044H109.617V168.147L135.627 106.565H157.821V168.499H167.45V183.044H157.821V206.327H139.913ZM124.648 168.557H139.913V126.213L124.648 168.557Z" fill="#623ECA"/>
    <path d="M203.148 206.386C197.159 206.386 192.169 205.154 188.235 202.691C184.301 200.228 181.307 196.826 179.369 192.545C177.373 188.263 176.434 183.278 176.434 177.589V132.899C176.434 127.092 177.373 121.99 179.252 117.591C181.131 113.193 184.066 109.791 188 107.328C191.934 104.864 196.983 103.633 203.148 103.633C209.254 103.633 214.245 104.864 218.12 107.328C221.995 109.791 224.931 113.193 226.81 117.591C228.688 121.99 229.628 127.092 229.628 132.899V177.589C229.628 183.278 228.63 188.263 226.692 192.545C224.696 196.826 221.76 200.228 217.826 202.691C213.893 205.154 209.019 206.386 203.148 206.386ZM203.148 189.671C205.379 189.671 206.964 188.967 207.963 187.56C208.961 186.152 209.607 184.51 209.959 182.574C210.311 180.639 210.429 178.88 210.429 177.237V133.309C210.429 131.491 210.311 129.614 210.018 127.62C209.724 125.626 209.078 123.925 208.08 122.518C207.082 121.11 205.438 120.348 203.148 120.348C200.858 120.348 199.156 121.052 198.157 122.518C197.101 123.984 196.455 125.685 196.161 127.62C195.868 129.614 195.75 131.491 195.75 133.309V177.237C195.75 178.88 195.926 180.639 196.22 182.574C196.572 184.51 197.218 186.152 198.334 187.56C199.449 188.967 201.034 189.671 203.148 189.671Z" fill="#623ECA"/>
    <path d="M270.316 206.327V183.044H240.02V168.147L266.029 106.565H288.223V168.499H297.852V183.044H288.223V206.327H270.316ZM255.05 168.557H270.316V126.213L255.05 168.557Z" fill="#623ECA"/>
    <path d="M406.647 158.235C368.249 183.395 292.45 200.462 205.202 200.462C115.253 200.462 37.517 182.281 0.351562 155.889V256.941H406.647V158.235Z" fill="#DADADA" fill-opacity="0.23"/>
    <path d="M398.31 163.278C357.915 185.624 286.52 200.521 205.202 200.521C115.253 200.521 37.517 182.339 0.351562 155.947" stroke="#11082D" stroke-miterlimit="10"/>
    <path d="M406.824 158.117C405.121 159.232 403.301 160.404 401.422 161.46" stroke="#11082D" stroke-miterlimit="10"/>
    <path d="M382.166 152.37C382.166 167.209 373.828 168.323 363.553 168.323C353.279 168.323 344.941 167.209 344.941 152.37C344.941 137.532 353.279 106.565 363.553 106.565C373.828 106.565 382.166 137.532 382.166 152.37Z" fill="#623ECA"/>
    <path d="M369.835 159.115L366.782 159.291L374.767 153.953L369.071 156.827L369.835 154.54L367.193 157.766L364.14 159.291L363.905 148.616L365.549 144.687L363.846 146.916L363.729 140.757L368.837 133.954L363.67 139.174L363.376 125.626L363.083 134.306L359.853 130.67L363.083 136.007L362.613 149.731L359.795 147.913L357.211 143.338L358.209 146.857L353.16 143.573L362.554 151.666L361.145 196.885H365.02L364.198 161.05L365.079 160.463L369.835 159.115Z" fill="#11082D"/>
    <path d="M362.319 197.296C362.319 197.296 355.45 190.199 357.387 190.434C359.325 190.669 362.906 195.947 362.906 195.947C362.906 195.947 362.965 184.217 364.668 186.798C366.37 189.378 364.257 196.006 364.257 196.006C364.257 196.006 369.13 188.381 369.13 189.613C369.071 193.484 365.372 196.475 365.372 196.475C365.372 196.475 373.181 190.669 371.948 193.014C370.657 195.36 365.666 197.589 365.666 197.589C365.666 197.589 374.708 195.771 371.479 197.061C368.249 198.352 365.196 199.231 365.196 199.231H362.672C362.672 199.231 354.158 194.95 357.329 195.595C360.558 196.24 362.319 197.296 362.319 197.296Z" fill="#11082D"/>
    <path d="M33.5826 188.498C33.5826 188.498 27.6526 182.34 29.2966 182.516C30.9405 182.692 34.0523 187.267 34.0523 187.267C34.0523 187.267 34.111 177.121 35.5789 179.349C37.0467 181.578 35.2266 187.325 35.2266 187.325C35.2266 187.325 39.4539 180.757 39.4539 181.812C39.4539 185.155 36.166 187.736 36.166 187.736C36.166 187.736 42.918 182.692 41.8612 184.745C40.7456 186.798 36.4009 188.674 36.4009 188.674C36.4009 188.674 44.2097 187.091 41.4502 188.205C38.6907 189.32 36.0486 190.082 36.0486 190.082H33.8762C33.8762 190.082 26.4783 186.387 29.2966 186.915C32.1148 187.56 33.5826 188.498 33.5826 188.498Z" fill="#11082D"/>
    <path d="M55.0718 144.277C55.0718 159.115 46.7346 160.229 36.4597 160.229C26.1849 160.229 17.8477 159.115 17.8477 144.277C17.8477 129.438 26.1849 98.4131 36.4597 98.4131C46.7346 98.4131 55.0718 129.438 55.0718 144.277Z" fill="#623ECA"/>
    <path d="M42.7411 151.021L39.6293 151.255L47.673 145.86L41.9191 148.734L42.7411 146.505L40.099 149.672L37.0459 151.197L36.811 140.581L38.3963 136.593L36.7523 138.822L36.6349 132.664L41.6842 125.86L36.5762 131.08L36.2826 117.474L35.9891 126.212L32.7011 122.576L35.9303 127.855L35.5194 141.696L32.6424 139.819L30.059 135.244L31.1159 138.822L26.0078 135.479L35.4606 143.572L33.9928 188.849H37.8679L37.1046 152.956L37.9853 152.37L42.7411 151.021Z" fill="#11082D"/>
    <path d="M98.5787 203.922C98.5787 203.922 92.6487 197.764 94.2926 197.94C95.9366 198.116 99.0484 202.691 99.0484 202.691C99.0484 202.691 99.1071 192.544 100.575 194.773C102.043 197.002 100.223 202.749 100.223 202.749C100.223 202.749 104.45 196.181 104.45 197.236C104.45 200.579 101.162 203.16 101.162 203.16C101.162 203.16 107.914 198.116 106.857 200.169C105.742 202.221 101.397 204.098 101.397 204.098C101.397 204.098 109.206 202.515 106.446 203.629C103.687 204.743 101.045 205.506 101.045 205.506H98.8723C98.8723 205.506 91.4744 201.811 94.2926 202.339C97.1109 202.984 98.5787 203.922 98.5787 203.922Z" fill="#11082D"/>
    <path d="M130.051 217.353C130.051 217.353 124.121 211.195 125.765 211.371C127.409 211.547 130.521 216.121 130.521 216.121C130.521 216.121 130.58 205.975 132.048 208.204C133.515 210.432 131.695 216.18 131.695 216.18C131.695 216.18 135.923 209.611 135.923 210.667C135.923 214.01 132.635 216.591 132.635 216.591C132.635 216.591 139.387 211.547 138.33 213.599C137.214 215.652 132.87 217.529 132.87 217.529C132.87 217.529 140.678 215.945 137.919 217.06C135.159 218.174 132.517 218.936 132.517 218.936H130.345C130.345 218.936 122.947 215.242 125.765 215.769C128.584 216.473 130.051 217.353 130.051 217.353Z" fill="#11082D"/>
    <path d="M214.539 208.321C214.539 208.321 210.253 203.864 211.486 204.04C212.66 204.157 214.95 207.5 214.95 207.5C214.95 207.5 215.008 200.169 216.065 201.811C217.122 203.395 215.83 207.559 215.83 207.559C215.83 207.559 218.884 202.808 218.884 203.571C218.884 205.975 216.535 207.852 216.535 207.852C216.535 207.852 221.408 204.216 220.645 205.682C219.823 207.148 216.711 208.556 216.711 208.556C216.711 208.556 222.348 207.441 220.351 208.204C218.355 209.025 216.418 209.553 216.418 209.553H214.832C214.832 209.553 209.489 206.914 211.486 207.265C213.482 207.676 214.539 208.321 214.539 208.321Z" fill="#11082D"/>
    <path d="M380.755 197.706C380.755 197.706 377.409 194.245 378.348 194.363C379.287 194.48 381.049 197.061 381.049 197.061C381.049 197.061 381.049 191.372 381.929 192.603C382.81 193.835 381.753 197.061 381.753 197.061C381.753 197.061 384.102 193.366 384.102 193.952C384.102 195.829 382.282 197.295 382.282 197.295C382.282 197.295 386.098 194.48 385.452 195.594C384.806 196.709 382.399 197.823 382.399 197.823C382.399 197.823 386.803 196.943 385.217 197.588C383.632 198.234 382.164 198.644 382.164 198.644H380.931C380.931 198.644 376.763 196.591 378.348 196.885C379.874 197.237 380.755 197.706 380.755 197.706Z" fill="#11082D"/>
    <path d="M156.411 208.38C156.411 208.38 150.481 202.222 152.125 202.398C153.769 202.574 156.88 207.149 156.88 207.149C156.88 207.149 156.939 197.002 158.407 199.231C159.875 201.46 158.055 207.207 158.055 207.207C158.055 207.207 162.282 200.639 162.282 201.694C162.282 205.037 158.994 207.618 158.994 207.618C158.994 207.618 165.746 202.574 164.689 204.627C163.574 206.679 159.229 208.556 159.229 208.556C159.229 208.556 167.038 206.973 164.278 208.087C161.519 209.201 158.877 209.964 158.877 209.964H156.763C156.763 209.964 149.365 206.269 152.183 206.797C154.943 207.442 156.411 208.38 156.411 208.38Z" fill="#623ECA"/>
    <path d="M113.608 204.274C113.608 204.274 109.616 200.169 110.731 200.286C111.847 200.404 113.961 203.512 113.961 203.512C113.961 203.512 113.961 196.709 114.959 198.234C115.957 199.7 114.724 203.571 114.724 203.571C114.724 203.571 117.542 199.172 117.542 199.876C117.542 202.104 115.37 203.864 115.37 203.864C115.37 203.864 119.891 200.521 119.186 201.87C118.423 203.219 115.546 204.509 115.546 204.509C115.546 204.509 120.771 203.453 118.951 204.216C117.072 204.978 115.311 205.447 115.311 205.447H113.843C113.843 205.447 108.911 202.984 110.731 203.336C112.61 203.629 113.608 204.274 113.608 204.274Z" fill="#623ECA"/>
    <path d="M63.8817 220.52C63.8817 220.52 59.8892 216.415 61.0048 216.532C62.1203 216.65 64.234 219.758 64.234 219.758C64.234 219.758 64.234 212.955 65.2321 214.48C66.2303 215.946 64.9973 219.817 64.9973 219.817C64.9973 219.817 67.8155 215.418 67.8155 216.122C67.8155 218.35 65.6431 220.11 65.6431 220.11C65.6431 220.11 70.164 216.767 69.4595 218.116C68.6962 219.465 65.8193 220.755 65.8193 220.755C65.8193 220.755 71.0447 219.699 69.2246 220.462C67.3458 221.224 65.5844 221.693 65.5844 221.693H64.1166C64.1166 221.693 59.1847 219.23 61.0048 219.582C62.8836 219.934 63.8817 220.52 63.8817 220.52Z" fill="#623ECA"/>
    <path d="M196.983 221.342C196.983 221.342 192.991 217.236 194.106 217.354C195.222 217.471 197.336 220.579 197.336 220.579C197.336 220.579 197.336 213.776 198.334 215.301C199.332 216.767 198.099 220.638 198.099 220.638C198.099 220.638 200.917 216.239 200.917 216.943C200.917 219.172 198.745 220.931 198.745 220.931C198.745 220.931 203.266 217.588 202.561 218.937C201.798 220.286 198.921 221.576 198.921 221.576C198.921 221.576 204.146 220.521 202.326 221.283C200.447 222.046 198.686 222.515 198.686 222.515H197.218C197.218 222.515 192.286 220.051 194.106 220.403C195.985 220.697 196.983 221.342 196.983 221.342Z" fill="#623ECA"/>
    <path d="M261.569 221.576C261.569 221.576 257.577 217.471 258.692 217.588C259.808 217.705 261.922 220.814 261.922 220.814C261.922 220.814 261.921 214.01 262.92 215.535C263.918 217.001 262.685 220.872 262.685 220.872C262.685 220.872 265.503 216.474 265.503 217.177C265.503 219.406 263.331 221.166 263.331 221.166C263.331 221.166 267.852 217.823 267.147 219.172C266.384 220.52 263.507 221.811 263.507 221.811C263.507 221.811 268.732 220.755 266.912 221.517C265.033 222.28 263.272 222.749 263.272 222.749H261.804C261.804 222.749 256.872 220.286 258.692 220.638C260.571 220.931 261.569 221.576 261.569 221.576Z" fill="#623ECA"/>
    <path d="M381.637 208.674C381.637 208.674 375.59 202.398 377.293 202.574C378.995 202.75 382.166 207.442 382.166 207.442C382.166 207.442 382.225 197.12 383.692 199.348C385.219 201.636 383.34 207.442 383.34 207.442C383.34 207.442 387.685 200.697 387.626 201.812C387.567 205.213 384.279 207.852 384.279 207.852C384.279 207.852 391.208 202.75 390.092 204.803C388.977 206.855 384.514 208.849 384.514 208.849C384.514 208.849 392.499 207.266 389.681 208.38C386.863 209.495 384.162 210.316 384.162 210.316H381.931C381.931 210.316 374.416 206.562 377.234 207.09C380.111 207.735 381.637 208.674 381.637 208.674Z" fill="#623ECA"/>
    <path d="M20.5515 208.674C20.5515 208.674 14.504 202.398 16.2067 202.574C17.9094 202.75 21.0799 207.442 21.0799 207.442C21.0799 207.442 21.1386 197.12 22.6064 199.348C24.133 201.636 22.2541 207.442 22.2541 207.442C22.2541 207.442 26.5989 200.697 26.5402 201.812C26.4815 205.213 23.1936 207.852 23.1936 207.852C23.1936 207.852 30.1217 202.75 29.0062 204.803C27.8906 206.855 23.4284 208.849 23.4284 208.849C23.4284 208.849 31.4134 207.266 28.5952 208.38C25.7769 209.495 23.0761 210.316 23.0761 210.316H20.845C20.845 210.316 13.3297 206.562 16.148 207.09C19.0836 207.735 20.5515 208.674 20.5515 208.674Z" fill="#623ECA"/>
    <path d="M50.433 199.817C50.433 199.817 44.2094 189.143 46.0295 188.322C47.7909 187.501 51.4312 195.653 51.4312 195.653C51.4312 195.653 50.7266 180.346 52.3706 181.754C54.0145 183.161 55.5411 194.011 55.5411 194.011C55.5411 194.011 58.829 182.223 59.8859 184.686C60.9427 187.149 59.0639 194.656 59.0639 194.656C59.0639 194.656 63.8197 185.624 64.2894 188.557C64.7591 191.489 62.0583 196.357 62.0583 196.357C62.0583 196.357 68.2819 190.14 68.7516 192.604C69.2213 195.067 67.1076 197.53 67.1076 197.53C67.1076 197.53 75.3862 193.073 73.3312 195.536C71.3349 197.999 68.3993 201.166 68.3993 201.166C68.3993 201.166 76.3256 198.351 75.3274 199.993C74.388 201.636 70.8652 203.395 70.8652 203.395C70.8652 203.395 77.3237 202.222 76.6191 203.278C75.9146 204.333 74.2706 205.389 74.2706 205.389H44.914C44.914 205.389 37.1051 202.574 40.2169 202.339C43.27 202.105 46.0883 203.395 46.0883 203.395C46.0883 203.395 36.518 196.944 41.0389 196.474C45.5011 196.005 49.2001 201.636 49.2001 201.636C49.2001 201.636 42.859 192.662 45.0901 194.07L50.433 199.817Z" fill="#623ECA"/>
    <path d="M50.8457 202.867C50.8457 202.867 42.8607 194.598 45.0918 194.832C47.323 195.067 51.5503 201.284 51.5503 201.284C51.5503 201.284 51.609 187.619 53.6053 190.61C55.6015 193.601 53.1356 201.342 53.1356 201.342C53.1356 201.342 58.8307 192.428 58.8307 193.894C58.772 198.41 54.4272 201.929 54.4272 201.929C54.4272 201.929 63.5865 195.184 62.06 197.882C60.5334 200.639 54.7208 203.219 54.7208 203.219C54.7208 203.219 65.2892 201.108 61.5315 202.574C57.7739 204.099 54.2511 205.096 54.2511 205.096H51.3154C51.3154 205.096 41.3342 200.111 45.0918 200.873C48.8495 201.636 50.8457 202.867 50.8457 202.867Z" fill="#11082D" stroke="#11082D" stroke-miterlimit="10"/>
    <path d="M314.526 218.584C314.526 218.584 302.783 198.409 306.13 196.826C309.476 195.242 316.404 210.608 316.404 210.608C316.404 210.608 315.054 181.694 318.166 184.333C321.278 187.031 324.155 207.5 324.155 207.5C324.155 207.5 330.378 185.213 332.374 189.905C334.371 194.597 330.789 208.731 330.789 208.731C330.789 208.731 339.772 191.664 340.653 197.236C341.534 202.808 336.426 211.957 336.426 211.957C336.426 211.957 348.227 200.169 349.108 204.861C349.988 209.552 345.996 214.186 345.996 214.186C345.996 214.186 361.614 205.74 357.797 210.374C353.981 215.065 348.462 221.048 348.462 221.048C348.462 221.048 363.375 215.711 361.614 218.819C359.852 221.927 353.159 225.27 353.159 225.27C353.159 225.27 365.43 223.042 364.079 225.036C362.729 227.03 359.617 229.024 359.617 229.024H304.133C304.133 229.024 289.396 223.746 295.209 223.276C301.022 222.807 306.364 225.27 306.364 225.27C306.364 225.27 288.339 213.013 296.794 212.133C305.249 211.253 312.177 221.927 312.177 221.927C312.177 221.927 300.141 205.036 304.368 207.676L314.526 218.584Z" fill="#623ECA"/>
    <path d="M315.29 224.332C315.29 224.332 300.142 208.673 304.429 209.142C308.715 209.611 316.641 221.341 316.641 221.341C316.641 221.341 316.758 195.535 320.516 201.166C324.274 206.796 319.635 221.458 319.635 221.458C319.635 221.458 330.438 204.626 330.38 207.383C330.321 215.887 322.042 222.514 322.042 222.514C322.042 222.514 339.304 209.729 336.486 214.89C333.668 220.051 322.63 224.977 322.63 224.977C322.63 224.977 342.533 220.989 335.488 223.804C328.384 226.619 321.69 228.555 321.69 228.555H316.171C316.171 228.555 297.383 219.112 304.429 220.52C311.474 221.986 315.29 224.332 315.29 224.332Z" fill="#11082D" stroke="#11082D" stroke-miterlimit="10"/>
    <path d="M70.6319 200.404C70.6319 200.404 71.8062 199.349 72.863 199.349C73.9198 199.349 77.0316 200.874 77.0316 200.874C77.0316 200.874 78.2646 202.809 78.382 202.926C78.4995 203.044 80.026 203.689 80.1434 203.982C80.2609 204.275 80.4957 205.155 80.4957 205.155H70.9255L69.1641 200.522L70.6319 200.404Z" fill="white" stroke="#11082D" stroke-miterlimit="10"/>
    <path d="M72.863 199.349L72.8043 200.287C72.8043 200.287 75.2702 201.695 75.2115 202.222C75.1528 202.75 74.6244 203.923 74.6244 203.923L75.8574 205.214H69.1641L69.6925 201.284C69.7512 201.284 71.1603 199.231 72.863 199.349Z" fill="#11082D"/>
    <path d="M58.1251 199.876C58.1251 199.876 62.9396 192.662 63.9964 192.604C65.0532 192.486 67.343 193.425 68.2237 194.891C69.1044 196.357 69.8677 199.29 69.9264 199.466C69.9851 199.642 70.22 199.759 71.5117 201.87C72.8034 203.982 72.7447 205.155 72.7447 205.155H54.25C54.25 205.155 54.661 203.278 55.3068 202.163C56.0114 201.108 57.5967 200.697 57.5967 200.697L58.1251 199.876Z" fill="white" stroke="#11082D" stroke-miterlimit="10"/>
    <path d="M65.5228 204.979C65.5228 204.979 64.9944 203.747 64.9357 203.571C64.877 203.395 64.877 201.753 64.7008 201.049C64.5247 200.345 63.1156 198.234 63.1156 198.234L64.1724 195.243L63.644 194.832L64.5247 192.721L64.055 192.486C62.9394 192.662 58.1837 199.759 58.1837 199.759L57.6552 200.58C57.6552 200.58 56.07 200.99 55.3654 202.046C54.7783 202.984 54.426 204.451 54.3086 204.92H65.5228V204.979Z" fill="#11082D"/>
    <path d="M255.58 202.221C255.58 202.221 256.343 201.518 256.989 201.518C257.635 201.518 259.631 202.456 259.631 202.456C259.631 202.456 260.394 203.688 260.512 203.746C260.57 203.805 261.569 204.215 261.627 204.391C261.686 204.567 261.862 205.095 261.862 205.095H255.873L254.758 202.163L255.58 202.221Z" fill="white" stroke="#11082D" stroke-miterlimit="10"/>
    <path d="M256.989 201.518L256.93 202.104C256.93 202.104 258.457 202.984 258.457 203.336C258.398 203.629 258.105 204.391 258.105 204.391L258.868 205.212H254.699L254.993 202.749C255.051 202.749 255.932 201.459 256.989 201.518Z" fill="#11082D"/>
    <path d="M247.771 201.87C247.771 201.87 250.765 197.354 251.47 197.295C252.174 197.236 253.583 197.823 254.112 198.703C254.64 199.582 255.169 201.459 255.169 201.576C255.227 201.694 255.345 201.752 256.167 203.101C256.989 204.45 256.93 205.154 256.93 205.154H245.305C245.305 205.154 245.54 203.981 246.009 203.277C246.42 202.573 247.418 202.339 247.418 202.339L247.771 201.87Z" fill="white" stroke="#11082D" stroke-miterlimit="10"/>
    <path d="M252.35 205.095C252.35 205.095 252.056 204.333 251.998 204.216C251.939 204.098 251.939 203.043 251.88 202.632C251.763 202.221 250.882 200.873 250.882 200.873L251.528 198.996L251.234 198.761L251.763 197.412L251.469 197.295C250.765 197.412 247.77 201.87 247.77 201.87L247.477 202.397C247.477 202.397 246.479 202.632 246.068 203.336C245.715 203.922 245.481 204.861 245.422 205.095H252.35Z" fill="#11082D"/>
    <path d="M352.693 219.758C352.693 219.758 354.983 217.705 356.921 217.705C358.858 217.705 364.788 220.579 364.788 220.579C364.788 220.579 367.137 224.215 367.372 224.45C367.606 224.684 370.483 225.916 370.718 226.444C370.953 226.972 371.364 228.614 371.364 228.614H353.222L349.875 219.816L352.693 219.758Z" fill="white" stroke="#11082D" stroke-miterlimit="10"/>
    <path d="M356.92 217.705L356.803 219.406C356.803 219.406 361.441 222.104 361.324 223.101C361.206 224.098 360.267 226.327 360.267 226.327L362.616 228.79H349.992L350.99 221.342C350.99 221.4 353.691 217.471 356.92 217.705Z" fill="#11082D"/>
    <path d="M329.089 218.703C329.089 218.703 338.131 205.096 340.186 204.92C342.241 204.686 346.527 206.445 348.171 209.26C349.815 212.075 351.283 217.589 351.4 217.882C351.518 218.234 351.929 218.41 354.395 222.398C356.86 226.386 356.743 228.673 356.743 228.673H321.75C321.75 228.673 322.513 225.096 323.805 223.043C325.097 220.99 328.15 220.228 328.15 220.228L329.089 218.703Z" fill="white" stroke="#11082D" stroke-miterlimit="10"/>
    <path d="M343.004 228.38C343.004 228.38 342.006 226.034 341.947 225.682C341.83 225.33 341.83 222.221 341.536 220.931C341.184 219.641 338.542 215.653 338.542 215.653L340.479 210.022L339.481 209.26L341.125 205.272L340.245 204.861C338.131 205.213 329.148 218.644 329.148 218.644L328.15 220.169C328.15 220.169 325.155 220.931 323.805 222.984C322.689 224.743 321.985 227.559 321.809 228.38H343.004Z" fill="#11082D"/>
    </g>
    <defs>
    <clipPath id="clip0_165_70279">
    <rect width="407" height="257" fill="white"/>
    </clipPath>
    </defs>
    </svg>
    