<svg width="80" height="80" viewBox="0 0 80 80" fill="none" xmlns="http://www.w3.org/2000/svg">
<g filter="url(#filter0_d_140_92071)">
<path d="M45.4333 56.6663C45.3333 56.6663 45.2166 56.6497 45.1166 56.6163C41.7666 55.6663 38.25 55.6663 34.9 56.6163C34.2833 56.783 33.6333 56.433 33.4666 55.8163C33.2833 55.1997 33.65 54.5497 34.2666 54.383C38.0333 53.3163 42 53.3163 45.7666 54.383C46.3833 54.5663 46.75 55.1997 46.5666 55.8163C46.4 56.333 45.9333 56.6663 45.4333 56.6663Z" fill="#009CBB"/>
<path d="M52.0166 30.5995C50.2833 27.0995 46.9333 24.5162 43.05 23.6662C38.9833 22.7662 34.8166 23.7329 31.6333 26.2995C28.4333 28.8495 26.6166 32.6662 26.6166 36.7495C26.6166 41.0662 29.2 45.5829 33.1 48.1995V49.5829C33.0833 50.0495 33.0666 50.7662 33.6333 51.3495C34.2166 51.9495 35.0833 52.0162 35.7666 52.0162H44.3166C45.2166 52.0162 45.9 51.7662 46.3666 51.2995C47 50.6495 46.9833 49.8162 46.9666 49.3662V48.1995C52.1333 44.7162 55.3833 37.3662 52.0166 30.5995ZM42.8666 39.3662L41.0833 42.4662C40.85 42.8662 40.4333 43.0995 40 43.0995C39.7833 43.0995 39.5666 43.0495 39.3833 42.9329C38.7833 42.5829 38.5833 41.8162 38.9166 41.2329L40.3333 38.7662H38.9333C38.1 38.7662 37.4166 38.3995 37.05 37.7829C36.6833 37.1495 36.7166 36.3829 37.1333 35.6495L38.9166 32.5495C39.2666 31.9495 40.0333 31.7495 40.6166 32.0829C41.2166 32.4329 41.4166 33.1995 41.0833 33.7829L39.6666 36.2495H41.0666C41.9 36.2495 42.5833 36.6162 42.95 37.2329C43.3166 37.8662 43.2833 38.6495 42.8666 39.3662Z" fill="#009CBB"/>
</g>
<defs>
<filter id="filter0_d_140_92071" x="-30" y="-10" width="140" height="140" filterUnits="userSpaceOnUse" color-interpolation-filters="sRGB">
<feFlood flood-opacity="0" result="BackgroundImageFix"/>
<feColorMatrix in="SourceAlpha" type="matrix" values="0 0 0 0 0 0 0 0 0 0 0 0 0 0 0 0 0 0 127 0" result="hardAlpha"/>
<feOffset dy="20"/>
<feGaussianBlur stdDeviation="25"/>
<feComposite in2="hardAlpha" operator="out"/>
<feColorMatrix type="matrix" values="0 0 0 0 0 0 0 0 0 0.611765 0 0 0 0 0.733333 0 0 0 1 0"/>
<feBlend mode="normal" in2="BackgroundImageFix" result="effect1_dropShadow_140_92071"/>
<feBlend mode="normal" in="SourceGraphic" in2="effect1_dropShadow_140_92071" result="shape"/>
</filter>
</defs>
</svg>
