<svg width="80" height="80" viewBox="0 0 80 80" fill="none" xmlns="http://www.w3.org/2000/svg">
<g filter="url(#filter0_d_140_92087)">
<path d="M41.9167 45.6171C41.55 45.0838 40.9 44.7838 40.15 44.7838H36.2667C36.0167 44.7838 35.7667 44.6838 35.6167 44.4838C35.45 44.2838 35.3833 44.0338 35.4167 43.7504L35.9 40.6504C36.1 39.7338 35.4833 38.6838 34.5667 38.3671C33.7 38.0504 32.7 38.4838 32.2833 39.1004L28.4333 44.8338V44.1171C28.4333 42.7171 27.8333 42.1504 26.3667 42.1504H25.4C23.9333 42.1671 23.3333 42.7338 23.3333 44.1338V53.6505C23.3333 55.0505 23.9333 55.6171 25.4 55.6171H26.3667C27.7667 55.6171 28.35 55.0671 28.4 53.8005L31.3167 56.0504C31.7333 56.4504 32.6167 56.6671 33.25 56.6671H36.9333C38.2 56.6671 39.4667 55.7171 39.7667 54.5504L42.1 47.4671C42.35 46.7838 42.2833 46.1338 41.9167 45.6171Z" fill="#623ECA"/>
<path d="M55.1833 24.3498H54.2167C52.8167 24.3498 52.2333 24.8998 52.1667 26.1665L49.25 23.9165C48.85 23.5165 47.95 23.2998 47.3167 23.2998H43.6333C42.3667 23.2998 41.1 24.2498 40.8 25.4165L38.4667 32.4998C38.2167 33.1831 38.3 33.8331 38.65 34.3498C39.0167 34.8831 39.6667 35.1831 40.4167 35.1831H44.3C44.55 35.1831 44.8 35.2831 44.95 35.4831C45.1167 35.6831 45.1833 35.9331 45.15 36.2165L44.6667 39.3165C44.4667 40.2331 45.0833 41.2831 46 41.5998C46.8667 41.9165 47.8667 41.4831 48.2833 40.8665L52.1333 35.1331V35.8498C52.1333 37.2498 52.7333 37.8165 54.2 37.8165H55.1667C56.6333 37.8165 57.2333 37.2498 57.2333 35.8498V26.2998C57.25 24.9165 56.65 24.3498 55.1833 24.3498Z" fill="#623ECA"/>
</g>
<defs>
<filter id="filter0_d_140_92087" x="-30" y="-10" width="140" height="140" filterUnits="userSpaceOnUse" color-interpolation-filters="sRGB">
<feFlood flood-opacity="0" result="BackgroundImageFix"/>
<feColorMatrix in="SourceAlpha" type="matrix" values="0 0 0 0 0 0 0 0 0 0 0 0 0 0 0 0 0 0 127 0" result="hardAlpha"/>
<feOffset dy="20"/>
<feGaussianBlur stdDeviation="25"/>
<feComposite in2="hardAlpha" operator="out"/>
<feColorMatrix type="matrix" values="0 0 0 0 0.384314 0 0 0 0 0.243137 0 0 0 0 0.792157 0 0 0 1 0"/>
<feBlend mode="normal" in2="BackgroundImageFix" result="effect1_dropShadow_140_92087"/>
<feBlend mode="normal" in="SourceGraphic" in2="effect1_dropShadow_140_92087" result="shape"/>
</filter>
</defs>
</svg>
