<svg width="80" height="80" viewBox="0 0 80 80" fill="none" xmlns="http://www.w3.org/2000/svg">
<g filter="url(#filter0_d_140_92077)">
<path d="M49.2167 32.9497C49.1 32.933 48.9833 32.933 48.8667 32.9497C46.2833 32.8663 44.2333 30.7497 44.2333 28.1497C44.2333 25.4997 46.3833 23.333 49.05 23.333C51.7 23.333 53.8667 25.483 53.8667 28.1497C53.85 30.7497 51.8 32.8663 49.2167 32.9497Z" fill="#1E8A5E"/>
<path d="M54.65 44.4997C52.7833 45.7497 50.1667 46.2164 47.75 45.8997C48.3833 44.533 48.7167 43.0164 48.7333 41.4164C48.7333 39.7497 48.3667 38.1664 47.6667 36.783C50.1333 36.4497 52.75 36.9164 54.6333 38.1664C57.2667 39.8997 57.2667 42.7497 54.65 44.4997Z" fill="#1E8A5E"/>
<path d="M30.7333 32.9497C30.85 32.933 30.9667 32.933 31.0833 32.9497C33.6667 32.8663 35.7167 30.7497 35.7167 28.1497C35.7167 25.483 33.5667 23.333 30.9 23.333C28.25 23.333 26.1 25.483 26.1 28.1497C26.1 30.7497 28.15 32.8663 30.7333 32.9497Z" fill="#1E8A5E"/>
<path d="M30.9167 41.4167C30.9167 43.0333 31.2667 44.5667 31.9 45.95C29.55 46.2 27.1 45.7 25.3 44.5167C22.6667 42.7667 22.6667 39.9167 25.3 38.1667C27.0833 36.9667 29.6 36.4833 31.9667 36.75C31.2833 38.15 30.9167 39.7333 30.9167 41.4167Z" fill="#1E8A5E"/>
<path d="M40.2 46.45C40.0667 46.4333 39.9167 46.4333 39.7667 46.45C36.7 46.35 34.25 43.8333 34.25 40.7333C34.2667 37.5667 36.8167 35 40 35C43.1667 35 45.7333 37.5667 45.7333 40.7333C45.7167 43.8333 43.2833 46.35 40.2 46.45Z" fill="#1E8A5E"/>
<path d="M34.7833 49.9004C32.2667 51.5837 32.2667 54.3504 34.7833 56.0171C37.65 57.9337 42.35 57.9337 45.2167 56.0171C47.7333 54.3337 47.7333 51.5671 45.2167 49.9004C42.3667 47.9837 37.6667 47.9837 34.7833 49.9004Z" fill="#1E8A5E"/>
</g>
<defs>
<filter id="filter0_d_140_92077" x="-30" y="-10" width="140" height="140" filterUnits="userSpaceOnUse" color-interpolation-filters="sRGB">
<feFlood flood-opacity="0" result="BackgroundImageFix"/>
<feColorMatrix in="SourceAlpha" type="matrix" values="0 0 0 0 0 0 0 0 0 0 0 0 0 0 0 0 0 0 127 0" result="hardAlpha"/>
<feOffset dy="20"/>
<feGaussianBlur stdDeviation="25"/>
<feComposite in2="hardAlpha" operator="out"/>
<feColorMatrix type="matrix" values="0 0 0 0 0.117647 0 0 0 0 0.541176 0 0 0 0 0.368627 0 0 0 1 0"/>
<feBlend mode="normal" in2="BackgroundImageFix" result="effect1_dropShadow_140_92077"/>
<feBlend mode="normal" in="SourceGraphic" in2="effect1_dropShadow_140_92077" result="shape"/>
</filter>
</defs>
</svg>
