<svg width="31" height="28" viewBox="0 0 31 28" fill="none" xmlns="http://www.w3.org/2000/svg">
<path opacity="0.7" d="M30.737 1.88L29.969 7.352C28.433 7.224 27.185 7.48 26.225 8.12C25.265 8.728 24.593 9.624 24.209 10.808C23.857 11.96 23.793 13.304 24.017 14.84H30.737V27.896H17.681V14.84C17.681 10.232 18.753 6.744 20.897 4.376C23.041 1.976 26.321 1.144 30.737 1.88ZM13.361 1.88L12.593 7.352C11.057 7.224 9.809 7.48 8.849 8.12C7.889 8.728 7.217 9.624 6.833 10.808C6.481 11.96 6.417 13.304 6.641 14.84H13.361V27.896H0.305001V14.84C0.305001 10.232 1.377 6.744 3.521 4.376C5.665 1.976 8.945 1.144 13.361 1.88Z" fill="#9672FF"/>
</svg>
